G04 #@! TF.GenerationSoftware,KiCad,Pcbnew,(5.1.9)-1*
G04 #@! TF.CreationDate,2021-05-05T15:37:49+09:00*
G04 #@! TF.ProjectId,FreeServoProject,46726565-5365-4727-966f-50726f6a6563,rev?*
G04 #@! TF.SameCoordinates,Original*
G04 #@! TF.FileFunction,Soldermask,Bot*
G04 #@! TF.FilePolarity,Negative*
%FSLAX46Y46*%
G04 Gerber Fmt 4.6, Leading zero omitted, Abs format (unit mm)*
G04 Created by KiCad (PCBNEW (5.1.9)-1) date 2021-05-05 15:37:49*
%MOMM*%
%LPD*%
G01*
G04 APERTURE LIST*
%ADD10O,1.200000X1.750000*%
%ADD11O,1.700000X1.950000*%
%ADD12R,1.350000X1.350000*%
%ADD13O,1.350000X1.350000*%
%ADD14C,1.350000*%
%ADD15R,1.600000X1.600000*%
%ADD16C,1.600000*%
%ADD17C,4.500880*%
%ADD18C,1.524000*%
%ADD19C,4.000000*%
%ADD20C,1.000000*%
G04 APERTURE END LIST*
D10*
X151700000Y-69600000D03*
X153700000Y-69600000D03*
X155700000Y-69600000D03*
G36*
G01*
X158300000Y-68974999D02*
X158300000Y-70225001D01*
G75*
G02*
X158050001Y-70475000I-249999J0D01*
G01*
X157349999Y-70475000D01*
G75*
G02*
X157100000Y-70225001I0J249999D01*
G01*
X157100000Y-68974999D01*
G75*
G02*
X157349999Y-68725000I249999J0D01*
G01*
X158050001Y-68725000D01*
G75*
G02*
X158300000Y-68974999I0J-249999D01*
G01*
G37*
X156700000Y-97100000D03*
X154700000Y-97100000D03*
G36*
G01*
X152100000Y-97725001D02*
X152100000Y-96474999D01*
G75*
G02*
X152349999Y-96225000I249999J0D01*
G01*
X153050001Y-96225000D01*
G75*
G02*
X153300000Y-96474999I0J-249999D01*
G01*
X153300000Y-97725001D01*
G75*
G02*
X153050001Y-97975000I-249999J0D01*
G01*
X152349999Y-97975000D01*
G75*
G02*
X152100000Y-97725001I0J249999D01*
G01*
G37*
G36*
G01*
X142950000Y-99425000D02*
X142950000Y-97175000D01*
G75*
G02*
X143325000Y-96800000I375000J0D01*
G01*
X144075000Y-96800000D01*
G75*
G02*
X144450000Y-97175000I0J-375000D01*
G01*
X144450000Y-99425000D01*
G75*
G02*
X144075000Y-99800000I-375000J0D01*
G01*
X143325000Y-99800000D01*
G75*
G02*
X142950000Y-99425000I0J375000D01*
G01*
G37*
G36*
G01*
X140950000Y-99425000D02*
X140950000Y-97175000D01*
G75*
G02*
X141325000Y-96800000I375000J0D01*
G01*
X142075000Y-96800000D01*
G75*
G02*
X142450000Y-97175000I0J-375000D01*
G01*
X142450000Y-99425000D01*
G75*
G02*
X142075000Y-99800000I-375000J0D01*
G01*
X141325000Y-99800000D01*
G75*
G02*
X140950000Y-99425000I0J375000D01*
G01*
G37*
G36*
G01*
X138950000Y-99425000D02*
X138950000Y-97175000D01*
G75*
G02*
X139325000Y-96800000I375000J0D01*
G01*
X140075000Y-96800000D01*
G75*
G02*
X140450000Y-97175000I0J-375000D01*
G01*
X140450000Y-99425000D01*
G75*
G02*
X140075000Y-99800000I-375000J0D01*
G01*
X139325000Y-99800000D01*
G75*
G02*
X138950000Y-99425000I0J375000D01*
G01*
G37*
G36*
G01*
X136950000Y-99425000D02*
X136950000Y-97175000D01*
G75*
G02*
X137325000Y-96800000I375000J0D01*
G01*
X138075000Y-96800000D01*
G75*
G02*
X138450000Y-97175000I0J-375000D01*
G01*
X138450000Y-99425000D01*
G75*
G02*
X138075000Y-99800000I-375000J0D01*
G01*
X137325000Y-99800000D01*
G75*
G02*
X136950000Y-99425000I0J375000D01*
G01*
G37*
G36*
G01*
X134950000Y-99425000D02*
X134950000Y-97175000D01*
G75*
G02*
X135325000Y-96800000I375000J0D01*
G01*
X136075000Y-96800000D01*
G75*
G02*
X136450000Y-97175000I0J-375000D01*
G01*
X136450000Y-99425000D01*
G75*
G02*
X136075000Y-99800000I-375000J0D01*
G01*
X135325000Y-99800000D01*
G75*
G02*
X134950000Y-99425000I0J375000D01*
G01*
G37*
D11*
X125100000Y-81700000D03*
X122600000Y-81700000D03*
X120100000Y-81700000D03*
G36*
G01*
X116750000Y-82425000D02*
X116750000Y-80975000D01*
G75*
G02*
X117000000Y-80725000I250000J0D01*
G01*
X118200000Y-80725000D01*
G75*
G02*
X118450000Y-80975000I0J-250000D01*
G01*
X118450000Y-82425000D01*
G75*
G02*
X118200000Y-82675000I-250000J0D01*
G01*
X117000000Y-82675000D01*
G75*
G02*
X116750000Y-82425000I0J250000D01*
G01*
G37*
D12*
X143900000Y-93000000D03*
D13*
X143900000Y-91000000D03*
X143900000Y-89000000D03*
X143900000Y-87000000D03*
D12*
X118400000Y-93000000D03*
D13*
X118400000Y-91000000D03*
X118400000Y-89000000D03*
X118400000Y-87000000D03*
D14*
X143900000Y-69000000D03*
D13*
X143900000Y-67000000D03*
X143900000Y-65000000D03*
X143900000Y-63000000D03*
D14*
X118400000Y-69000000D03*
D13*
X118400000Y-67000000D03*
X118400000Y-65000000D03*
X118400000Y-63000000D03*
D15*
X116000000Y-64250000D03*
D16*
X116000000Y-67750000D03*
D17*
X118400000Y-73500000D03*
X118400000Y-58500000D03*
X141000000Y-72300000D03*
X141000000Y-59700000D03*
D12*
X130100000Y-98500000D03*
D13*
X132100000Y-98500000D03*
D18*
X144000000Y-81000000D03*
X141500000Y-81000000D03*
X139000000Y-81000000D03*
X136500000Y-81000000D03*
G36*
G01*
X116850000Y-98325000D02*
X116850000Y-96875000D01*
G75*
G02*
X117100000Y-96625000I250000J0D01*
G01*
X118300000Y-96625000D01*
G75*
G02*
X118550000Y-96875000I0J-250000D01*
G01*
X118550000Y-98325000D01*
G75*
G02*
X118300000Y-98575000I-250000J0D01*
G01*
X117100000Y-98575000D01*
G75*
G02*
X116850000Y-98325000I0J250000D01*
G01*
G37*
D11*
X120200000Y-97600000D03*
X122700000Y-97600000D03*
X125200000Y-97600000D03*
D19*
X154750000Y-87150000D03*
D20*
X157250000Y-84150000D03*
X152250000Y-84150000D03*
X157350000Y-90850000D03*
X152350000Y-90850000D03*
M02*
