G04 #@! TF.GenerationSoftware,KiCad,Pcbnew,(5.1.9)-1*
G04 #@! TF.CreationDate,2021-05-05T15:37:49+09:00*
G04 #@! TF.ProjectId,FreeServoProject,46726565-5365-4727-966f-50726f6a6563,rev?*
G04 #@! TF.SameCoordinates,Original*
G04 #@! TF.FileFunction,Copper,L1,Top*
G04 #@! TF.FilePolarity,Positive*
%FSLAX46Y46*%
G04 Gerber Fmt 4.6, Leading zero omitted, Abs format (unit mm)*
G04 Created by KiCad (PCBNEW (5.1.9)-1) date 2021-05-05 15:37:49*
%MOMM*%
%LPD*%
G01*
G04 APERTURE LIST*
G04 #@! TA.AperFunction,ComponentPad*
%ADD10O,1.200000X1.750000*%
G04 #@! TD*
G04 #@! TA.AperFunction,SMDPad,CuDef*
%ADD11R,1.900000X0.400000*%
G04 #@! TD*
G04 #@! TA.AperFunction,ComponentPad*
%ADD12O,1.700000X1.950000*%
G04 #@! TD*
G04 #@! TA.AperFunction,ComponentPad*
%ADD13R,1.350000X1.350000*%
G04 #@! TD*
G04 #@! TA.AperFunction,ComponentPad*
%ADD14O,1.350000X1.350000*%
G04 #@! TD*
G04 #@! TA.AperFunction,ComponentPad*
%ADD15C,1.350000*%
G04 #@! TD*
G04 #@! TA.AperFunction,ComponentPad*
%ADD16R,1.600000X1.600000*%
G04 #@! TD*
G04 #@! TA.AperFunction,ComponentPad*
%ADD17C,1.600000*%
G04 #@! TD*
G04 #@! TA.AperFunction,SMDPad,CuDef*
%ADD18R,2.500000X1.000000*%
G04 #@! TD*
G04 #@! TA.AperFunction,ComponentPad*
%ADD19C,4.500880*%
G04 #@! TD*
G04 #@! TA.AperFunction,SMDPad,CuDef*
%ADD20R,1.250000X1.000000*%
G04 #@! TD*
G04 #@! TA.AperFunction,SMDPad,CuDef*
%ADD21R,0.750000X0.800000*%
G04 #@! TD*
G04 #@! TA.AperFunction,SMDPad,CuDef*
%ADD22R,0.800000X0.750000*%
G04 #@! TD*
G04 #@! TA.AperFunction,SMDPad,CuDef*
%ADD23R,0.800000X0.800000*%
G04 #@! TD*
G04 #@! TA.AperFunction,SMDPad,CuDef*
%ADD24R,0.600000X0.700000*%
G04 #@! TD*
G04 #@! TA.AperFunction,ComponentPad*
%ADD25C,1.524000*%
G04 #@! TD*
G04 #@! TA.AperFunction,SMDPad,CuDef*
%ADD26R,0.500000X0.900000*%
G04 #@! TD*
G04 #@! TA.AperFunction,SMDPad,CuDef*
%ADD27R,1.000000X1.500000*%
G04 #@! TD*
G04 #@! TA.AperFunction,SMDPad,CuDef*
%ADD28C,0.152400*%
G04 #@! TD*
G04 #@! TA.AperFunction,SMDPad,CuDef*
%ADD29R,2.200000X1.840000*%
G04 #@! TD*
G04 #@! TA.AperFunction,SMDPad,CuDef*
%ADD30R,1.000000X1.800000*%
G04 #@! TD*
G04 #@! TA.AperFunction,SMDPad,CuDef*
%ADD31R,0.600000X1.200000*%
G04 #@! TD*
G04 #@! TA.AperFunction,SMDPad,CuDef*
%ADD32R,1.200000X0.600000*%
G04 #@! TD*
G04 #@! TA.AperFunction,SMDPad,CuDef*
%ADD33R,1.500000X0.600000*%
G04 #@! TD*
G04 #@! TA.AperFunction,SMDPad,CuDef*
%ADD34R,1.550000X0.600000*%
G04 #@! TD*
G04 #@! TA.AperFunction,SMDPad,CuDef*
%ADD35R,0.508000X1.143000*%
G04 #@! TD*
G04 #@! TA.AperFunction,ViaPad*
%ADD36C,0.600000*%
G04 #@! TD*
G04 #@! TA.AperFunction,ViaPad*
%ADD37C,0.900000*%
G04 #@! TD*
G04 #@! TA.AperFunction,Conductor*
%ADD38C,0.200000*%
G04 #@! TD*
G04 #@! TA.AperFunction,Conductor*
%ADD39C,0.400000*%
G04 #@! TD*
G04 #@! TA.AperFunction,Conductor*
%ADD40C,1.200000*%
G04 #@! TD*
G04 #@! TA.AperFunction,Conductor*
%ADD41C,0.500000*%
G04 #@! TD*
G04 #@! TA.AperFunction,Conductor*
%ADD42C,0.254000*%
G04 #@! TD*
G04 #@! TA.AperFunction,Conductor*
%ADD43C,0.152400*%
G04 #@! TD*
G04 APERTURE END LIST*
D10*
X151700000Y-69600000D03*
X153700000Y-69600000D03*
X155700000Y-69600000D03*
G04 #@! TA.AperFunction,ComponentPad*
G36*
G01*
X158300000Y-68974999D02*
X158300000Y-70225001D01*
G75*
G02*
X158050001Y-70475000I-249999J0D01*
G01*
X157349999Y-70475000D01*
G75*
G02*
X157100000Y-70225001I0J249999D01*
G01*
X157100000Y-68974999D01*
G75*
G02*
X157349999Y-68725000I249999J0D01*
G01*
X158050001Y-68725000D01*
G75*
G02*
X158300000Y-68974999I0J-249999D01*
G01*
G37*
G04 #@! TD.AperFunction*
X156700000Y-97100000D03*
X154700000Y-97100000D03*
G04 #@! TA.AperFunction,ComponentPad*
G36*
G01*
X152100000Y-97725001D02*
X152100000Y-96474999D01*
G75*
G02*
X152349999Y-96225000I249999J0D01*
G01*
X153050001Y-96225000D01*
G75*
G02*
X153300000Y-96474999I0J-249999D01*
G01*
X153300000Y-97725001D01*
G75*
G02*
X153050001Y-97975000I-249999J0D01*
G01*
X152349999Y-97975000D01*
G75*
G02*
X152100000Y-97725001I0J249999D01*
G01*
G37*
G04 #@! TD.AperFunction*
G04 #@! TA.AperFunction,SMDPad,CuDef*
G36*
G01*
X142950000Y-99425000D02*
X142950000Y-97175000D01*
G75*
G02*
X143325000Y-96800000I375000J0D01*
G01*
X144075000Y-96800000D01*
G75*
G02*
X144450000Y-97175000I0J-375000D01*
G01*
X144450000Y-99425000D01*
G75*
G02*
X144075000Y-99800000I-375000J0D01*
G01*
X143325000Y-99800000D01*
G75*
G02*
X142950000Y-99425000I0J375000D01*
G01*
G37*
G04 #@! TD.AperFunction*
G04 #@! TA.AperFunction,SMDPad,CuDef*
G36*
G01*
X140950000Y-99425000D02*
X140950000Y-97175000D01*
G75*
G02*
X141325000Y-96800000I375000J0D01*
G01*
X142075000Y-96800000D01*
G75*
G02*
X142450000Y-97175000I0J-375000D01*
G01*
X142450000Y-99425000D01*
G75*
G02*
X142075000Y-99800000I-375000J0D01*
G01*
X141325000Y-99800000D01*
G75*
G02*
X140950000Y-99425000I0J375000D01*
G01*
G37*
G04 #@! TD.AperFunction*
G04 #@! TA.AperFunction,SMDPad,CuDef*
G36*
G01*
X138950000Y-99425000D02*
X138950000Y-97175000D01*
G75*
G02*
X139325000Y-96800000I375000J0D01*
G01*
X140075000Y-96800000D01*
G75*
G02*
X140450000Y-97175000I0J-375000D01*
G01*
X140450000Y-99425000D01*
G75*
G02*
X140075000Y-99800000I-375000J0D01*
G01*
X139325000Y-99800000D01*
G75*
G02*
X138950000Y-99425000I0J375000D01*
G01*
G37*
G04 #@! TD.AperFunction*
G04 #@! TA.AperFunction,SMDPad,CuDef*
G36*
G01*
X136950000Y-99425000D02*
X136950000Y-97175000D01*
G75*
G02*
X137325000Y-96800000I375000J0D01*
G01*
X138075000Y-96800000D01*
G75*
G02*
X138450000Y-97175000I0J-375000D01*
G01*
X138450000Y-99425000D01*
G75*
G02*
X138075000Y-99800000I-375000J0D01*
G01*
X137325000Y-99800000D01*
G75*
G02*
X136950000Y-99425000I0J375000D01*
G01*
G37*
G04 #@! TD.AperFunction*
D11*
X130200000Y-83300000D03*
X130200000Y-84500000D03*
X130200000Y-85700000D03*
D12*
X125100000Y-81700000D03*
X122600000Y-81700000D03*
X120100000Y-81700000D03*
G04 #@! TA.AperFunction,ComponentPad*
G36*
G01*
X116750000Y-82425000D02*
X116750000Y-80975000D01*
G75*
G02*
X117000000Y-80725000I250000J0D01*
G01*
X118200000Y-80725000D01*
G75*
G02*
X118450000Y-80975000I0J-250000D01*
G01*
X118450000Y-82425000D01*
G75*
G02*
X118200000Y-82675000I-250000J0D01*
G01*
X117000000Y-82675000D01*
G75*
G02*
X116750000Y-82425000I0J250000D01*
G01*
G37*
G04 #@! TD.AperFunction*
D13*
X143900000Y-93000000D03*
D14*
X143900000Y-91000000D03*
X143900000Y-89000000D03*
X143900000Y-87000000D03*
D13*
X118400000Y-93000000D03*
D14*
X118400000Y-91000000D03*
X118400000Y-89000000D03*
X118400000Y-87000000D03*
D15*
X143900000Y-69000000D03*
D14*
X143900000Y-67000000D03*
X143900000Y-65000000D03*
X143900000Y-63000000D03*
D15*
X118400000Y-69000000D03*
D14*
X118400000Y-67000000D03*
X118400000Y-65000000D03*
X118400000Y-63000000D03*
D16*
X116000000Y-64250000D03*
D17*
X116000000Y-67750000D03*
D18*
X124100000Y-67800000D03*
X124100000Y-70800000D03*
D19*
X118400000Y-73500000D03*
X118400000Y-58500000D03*
X141000000Y-72300000D03*
X141000000Y-59700000D03*
D13*
X130100000Y-98500000D03*
D14*
X132100000Y-98500000D03*
D20*
X120200000Y-84800000D03*
X120200000Y-86800000D03*
D18*
X121100000Y-67800000D03*
X121100000Y-70800000D03*
X127100000Y-67800000D03*
X127100000Y-70800000D03*
X121100000Y-64200000D03*
X121100000Y-61200000D03*
X124100000Y-64200000D03*
X124100000Y-61200000D03*
X127100000Y-64200000D03*
X127100000Y-61200000D03*
D21*
X126900000Y-84650000D03*
X126900000Y-86150000D03*
D22*
X129450000Y-80900000D03*
X130950000Y-80900000D03*
X130950000Y-82200000D03*
X129450000Y-82200000D03*
D21*
X141600000Y-92550000D03*
X141600000Y-91050000D03*
D22*
X130750000Y-90800000D03*
X129250000Y-90800000D03*
X130750000Y-92100000D03*
X129250000Y-92100000D03*
X128850000Y-88200000D03*
X130350000Y-88200000D03*
X132250000Y-93500000D03*
X133750000Y-93500000D03*
D21*
X141800000Y-66750000D03*
X141800000Y-65250000D03*
D22*
X120550000Y-89700000D03*
X122050000Y-89700000D03*
X156150000Y-67450000D03*
X154650000Y-67450000D03*
D21*
X159700000Y-94550000D03*
X159700000Y-96050000D03*
D23*
X144300000Y-95500000D03*
X142700000Y-95500000D03*
D24*
X132100000Y-94900000D03*
X133500000Y-94900000D03*
D22*
X130750000Y-89500000D03*
X129250000Y-89500000D03*
D25*
X144000000Y-81000000D03*
X141500000Y-81000000D03*
X139000000Y-81000000D03*
X136500000Y-81000000D03*
G04 #@! TA.AperFunction,ComponentPad*
G36*
G01*
X116850000Y-98325000D02*
X116850000Y-96875000D01*
G75*
G02*
X117100000Y-96625000I250000J0D01*
G01*
X118300000Y-96625000D01*
G75*
G02*
X118550000Y-96875000I0J-250000D01*
G01*
X118550000Y-98325000D01*
G75*
G02*
X118300000Y-98575000I-250000J0D01*
G01*
X117100000Y-98575000D01*
G75*
G02*
X116850000Y-98325000I0J250000D01*
G01*
G37*
G04 #@! TD.AperFunction*
D12*
X120200000Y-97600000D03*
X122700000Y-97600000D03*
X125200000Y-97600000D03*
D26*
X133550000Y-81300000D03*
X135050000Y-81300000D03*
X141550000Y-94850000D03*
X140050000Y-94850000D03*
X129550000Y-93500000D03*
X131050000Y-93500000D03*
X131050000Y-94900000D03*
X129550000Y-94900000D03*
X130650000Y-62800000D03*
X129150000Y-62800000D03*
X140650000Y-63900000D03*
X139150000Y-63900000D03*
X140650000Y-66700000D03*
X139150000Y-66700000D03*
X140650000Y-65300000D03*
X139150000Y-65300000D03*
X129150000Y-69200000D03*
X130650000Y-69200000D03*
X139150000Y-68100000D03*
X140650000Y-68100000D03*
X133050000Y-96300000D03*
X131550000Y-96300000D03*
X155350000Y-58000000D03*
X156850000Y-58000000D03*
X152600000Y-58000000D03*
X154100000Y-58000000D03*
D27*
X152250000Y-94850000D03*
X154750000Y-94850000D03*
X157250000Y-94850000D03*
X154750000Y-80950000D03*
G04 #@! TA.AperFunction,SMDPad,CuDef*
D28*
G36*
X122600000Y-86923800D02*
G01*
X123300000Y-85923800D01*
X124100000Y-85923800D01*
X124800000Y-86923800D01*
X122600000Y-86923800D01*
G37*
G04 #@! TD.AperFunction*
D29*
X123700000Y-87833500D03*
D27*
X122200000Y-85020000D03*
D30*
X123700000Y-85166500D03*
D27*
X125200000Y-85020000D03*
G04 #@! TA.AperFunction,SMDPad,CuDef*
D28*
G36*
X124800000Y-88742000D02*
G01*
X124200000Y-89592000D01*
X123200000Y-89592000D01*
X122600000Y-88742000D01*
X124800000Y-88742000D01*
G37*
G04 #@! TD.AperFunction*
D31*
X133900000Y-82850000D03*
X134700000Y-82850000D03*
X135500000Y-82850000D03*
X136300000Y-82850000D03*
X137100000Y-82850000D03*
X137900000Y-82850000D03*
X138700000Y-82850000D03*
X139500000Y-82850000D03*
D32*
X140950000Y-84300000D03*
X140950000Y-85100000D03*
X140950000Y-85900000D03*
X140950000Y-86700000D03*
X140950000Y-87500000D03*
X140950000Y-88300000D03*
X140950000Y-89100000D03*
X140950000Y-89900000D03*
D31*
X139500000Y-91350000D03*
X138700000Y-91350000D03*
X137900000Y-91350000D03*
X137100000Y-91350000D03*
X136300000Y-91350000D03*
X135500000Y-91350000D03*
X134700000Y-91350000D03*
X133900000Y-91350000D03*
D32*
X132450000Y-89900000D03*
X132450000Y-89100000D03*
X132450000Y-88300000D03*
X132450000Y-87500000D03*
X132450000Y-86700000D03*
X132450000Y-85900000D03*
X132450000Y-85100000D03*
X132450000Y-84300000D03*
D33*
X137600000Y-61555000D03*
X137600000Y-62825000D03*
X137600000Y-64095000D03*
X137600000Y-65365000D03*
X137600000Y-66635000D03*
X137600000Y-67905000D03*
X137600000Y-69175000D03*
X137600000Y-70445000D03*
X132200000Y-70445000D03*
X132200000Y-69175000D03*
X132200000Y-67905000D03*
X132200000Y-66635000D03*
X132200000Y-65365000D03*
X132200000Y-64095000D03*
X132200000Y-62825000D03*
X132200000Y-61555000D03*
D34*
X121000000Y-95005000D03*
X121000000Y-93735000D03*
X121000000Y-92465000D03*
X121000000Y-91195000D03*
X126400000Y-91195000D03*
X126400000Y-92465000D03*
X126400000Y-93735000D03*
X126400000Y-95005000D03*
D35*
X152845000Y-65975000D03*
X154115000Y-65975000D03*
X155385000Y-65975000D03*
X156655000Y-65975000D03*
X156655000Y-59625000D03*
X155385000Y-59625000D03*
X154115000Y-59625000D03*
X152845000Y-59625000D03*
D26*
X130950000Y-86800000D03*
X129450000Y-86800000D03*
D36*
X128500000Y-85800000D03*
X124150000Y-86500000D03*
X123250000Y-86500000D03*
X122900000Y-87000000D03*
X124500000Y-87000000D03*
X124400000Y-88800000D03*
X123000000Y-88800000D03*
X124000000Y-89250000D03*
X123400000Y-89250000D03*
D37*
X141700000Y-99200000D03*
X141700000Y-97300000D03*
X141700000Y-98250000D03*
D36*
X133500000Y-61500000D03*
X134900000Y-61500000D03*
X136200000Y-61500000D03*
X133500000Y-60500000D03*
X134900000Y-60500000D03*
X136300000Y-60500000D03*
X138100000Y-60500000D03*
X131500000Y-60500000D03*
X133600000Y-70500000D03*
X135000000Y-70500000D03*
X136300000Y-70500000D03*
X131600000Y-71400000D03*
X133600000Y-71400000D03*
X135000000Y-71400000D03*
X136300000Y-71400000D03*
X138100000Y-71400000D03*
X124400000Y-60200000D03*
X125100000Y-60200000D03*
X125800000Y-60200000D03*
X126500000Y-60200000D03*
X127200000Y-60200000D03*
X127900000Y-60200000D03*
X128600000Y-60200000D03*
X129300000Y-60200000D03*
X138100000Y-56550000D03*
X138100000Y-75450000D03*
X124400000Y-56550000D03*
X128800000Y-84200000D03*
D37*
X120200000Y-88000000D03*
D36*
X134400000Y-94900000D03*
X144475000Y-94600000D03*
X120250000Y-88900000D03*
X128500000Y-82950000D03*
X127950000Y-87900000D03*
X142350000Y-92550000D03*
X129332085Y-96040395D03*
D37*
X123700000Y-83600000D03*
D36*
X132417473Y-81033983D03*
X134494535Y-93805465D03*
D37*
X126950010Y-87337254D03*
D36*
X139524986Y-92458037D03*
D37*
X143250000Y-84950000D03*
X151950000Y-59600000D03*
X157050000Y-67550000D03*
D36*
X128791568Y-91466927D03*
X134750000Y-85050000D03*
X143500001Y-96200002D03*
X138350000Y-93950000D03*
X138372303Y-96352530D03*
X133600000Y-69700000D03*
X133600000Y-69000000D03*
X135000000Y-69000000D03*
X135000000Y-69700000D03*
X136300000Y-69700000D03*
X136300000Y-69000000D03*
X139000000Y-75400000D03*
X141200000Y-75400000D03*
X143100000Y-75400000D03*
X133500000Y-62300000D03*
X133500000Y-63000000D03*
X134900000Y-63000000D03*
X134900000Y-62300000D03*
X136200000Y-62300000D03*
X136200000Y-63000000D03*
X139000000Y-56600000D03*
X143100000Y-56600000D03*
X141000000Y-56600000D03*
X137800000Y-84000000D03*
X136801657Y-84449990D03*
X136261225Y-85798756D03*
X130400000Y-96350000D03*
X136149998Y-94604317D03*
X136800000Y-89849981D03*
X139797512Y-85851032D03*
X127391557Y-92999979D03*
X124750000Y-91250000D03*
X138099272Y-87549272D03*
X125100000Y-94000000D03*
X138518781Y-88230471D03*
D37*
X139700000Y-99250000D03*
X139700000Y-98300000D03*
X139700000Y-97350000D03*
D36*
X140700000Y-93250000D03*
X136200000Y-68100000D03*
X133500000Y-68100000D03*
X136200000Y-64900000D03*
X133500000Y-64900000D03*
X133500000Y-67000000D03*
X136200000Y-67000000D03*
X136200000Y-66000000D03*
X133500000Y-66000000D03*
X134900000Y-64900000D03*
X134900000Y-66000000D03*
X134900000Y-67000000D03*
X134900000Y-68100000D03*
X130900000Y-64900000D03*
X130900000Y-65900000D03*
X130900000Y-67000000D03*
X129300000Y-67000000D03*
X129300000Y-65900000D03*
X129300000Y-64900000D03*
X119900000Y-65300000D03*
X120600000Y-65300000D03*
X121300000Y-65300000D03*
X122000000Y-65300000D03*
X119900000Y-66700000D03*
X120600000Y-66700000D03*
X121300000Y-66700000D03*
X122000000Y-66700000D03*
X119900000Y-66000000D03*
X120600000Y-66000000D03*
X121300000Y-66000000D03*
X122000000Y-66000000D03*
X122700000Y-66700000D03*
X122700000Y-66000000D03*
X122700000Y-65300000D03*
X123400000Y-65300000D03*
X123400000Y-66000000D03*
X123400000Y-66700000D03*
X128300000Y-95800000D03*
X128050000Y-97550000D03*
D38*
X129450000Y-86750000D02*
X128500000Y-85800000D01*
X129450000Y-86800000D02*
X129450000Y-86750000D01*
D39*
X117300000Y-73000000D02*
X116800000Y-73500000D01*
X143500000Y-65250000D02*
X144000000Y-64750000D01*
X141750000Y-65300000D02*
X141800000Y-65250000D01*
X140650000Y-65300000D02*
X141750000Y-65300000D01*
X143650000Y-65250000D02*
X143900000Y-65000000D01*
X141800000Y-65250000D02*
X143650000Y-65250000D01*
D40*
X116000000Y-67750000D02*
X116000000Y-70300000D01*
X118400000Y-69000000D02*
X118400000Y-70300000D01*
D38*
X129100000Y-84500000D02*
X128800000Y-84200000D01*
X130200000Y-84500000D02*
X129100000Y-84500000D01*
X133900000Y-81650000D02*
X133550000Y-81300000D01*
X133900000Y-82850000D02*
X133900000Y-81650000D01*
X126900000Y-87200000D02*
X126900000Y-87200000D01*
D41*
X120200000Y-86800000D02*
X120200000Y-88000000D01*
D38*
X133500000Y-94900000D02*
X134400000Y-94900000D01*
X134400000Y-94900000D02*
X134400000Y-94900000D01*
X144300000Y-94775000D02*
X144475000Y-94600000D01*
X144300000Y-95500000D02*
X144300000Y-94775000D01*
X120550000Y-90745000D02*
X121000000Y-91195000D01*
X120550000Y-89700000D02*
X120550000Y-90745000D01*
X120550000Y-89200000D02*
X120250000Y-88900000D01*
X120550000Y-89700000D02*
X120550000Y-89200000D01*
X129250000Y-82200000D02*
X128500000Y-82950000D01*
X129450000Y-82200000D02*
X129250000Y-82200000D01*
X128850000Y-88200000D02*
X128250000Y-88200000D01*
X128250000Y-88200000D02*
X127950000Y-87900000D01*
X129099259Y-92100000D02*
X128950010Y-91950751D01*
X129250000Y-92100000D02*
X129099259Y-92100000D01*
X141525009Y-92475009D02*
X141525009Y-92410323D01*
X141600000Y-92550000D02*
X142350000Y-92550000D01*
X129550000Y-95822480D02*
X129332085Y-96040395D01*
X129550000Y-94900000D02*
X129550000Y-95822480D01*
D39*
X123700000Y-85166500D02*
X123700000Y-83600000D01*
X123700000Y-89167000D02*
X123700000Y-87833500D01*
D38*
X132283490Y-80900000D02*
X132417473Y-81033983D01*
X133550000Y-81300000D02*
X132683490Y-81300000D01*
X132683490Y-81300000D02*
X132417473Y-81033983D01*
X130950000Y-80900000D02*
X132283490Y-80900000D01*
X134189070Y-93500000D02*
X134494535Y-93805465D01*
X133750000Y-93500000D02*
X134189070Y-93500000D01*
D41*
X126900000Y-86150000D02*
X126900000Y-87287244D01*
X126900000Y-87287244D02*
X126950010Y-87337254D01*
D38*
X126800000Y-87300000D02*
X126912756Y-87300000D01*
X126912756Y-87300000D02*
X126950010Y-87337254D01*
X139500000Y-92433051D02*
X139524986Y-92458037D01*
X139500000Y-91350000D02*
X139500000Y-92433051D01*
D39*
X142824999Y-85375001D02*
X143250000Y-84950000D01*
X142824999Y-87924999D02*
X142824999Y-85375001D01*
X143900000Y-89000000D02*
X142824999Y-87924999D01*
D38*
X156655000Y-66945000D02*
X156150000Y-67450000D01*
X156655000Y-65975000D02*
X156655000Y-66945000D01*
X151975000Y-59625000D02*
X151950000Y-59600000D01*
X152845000Y-59625000D02*
X151975000Y-59625000D01*
X156950000Y-67450000D02*
X157050000Y-67550000D01*
X156150000Y-67450000D02*
X156950000Y-67450000D01*
X157200000Y-96600000D02*
X156700000Y-97100000D01*
X157200000Y-94800000D02*
X157200000Y-96600000D01*
X157450000Y-94550000D02*
X157200000Y-94800000D01*
X159700000Y-94550000D02*
X157450000Y-94550000D01*
X128791568Y-91641568D02*
X128791568Y-91466927D01*
X129250000Y-92100000D02*
X128791568Y-91641568D01*
X129250000Y-91008495D02*
X128791568Y-91466927D01*
X129250000Y-90800000D02*
X129250000Y-91008495D01*
X131549999Y-92799999D02*
X132250000Y-93500000D01*
X131549999Y-88400001D02*
X131549999Y-92799999D01*
X131650000Y-88300000D02*
X131549999Y-88400001D01*
X132450000Y-88300000D02*
X131650000Y-88300000D01*
X132100000Y-93650000D02*
X132250000Y-93500000D01*
X132100000Y-94900000D02*
X132100000Y-93650000D01*
X131050000Y-93500000D02*
X131050000Y-94900000D01*
X131050000Y-94900000D02*
X132100000Y-94900000D01*
D39*
X143500000Y-66750000D02*
X144000000Y-67250000D01*
X141750000Y-66700000D02*
X141800000Y-66750000D01*
X140650000Y-66700000D02*
X141750000Y-66700000D01*
X143650000Y-66750000D02*
X143900000Y-67000000D01*
X141800000Y-66750000D02*
X143650000Y-66750000D01*
D38*
X133250000Y-89100000D02*
X132450000Y-89100000D01*
X133250000Y-89100000D02*
X133350000Y-89000000D01*
X133350000Y-86450000D02*
X134750000Y-85050000D01*
X133350000Y-89000000D02*
X133350000Y-86450000D01*
X143500001Y-94959999D02*
X143500001Y-96200002D01*
X140040002Y-90450000D02*
X140149998Y-90559996D01*
X142640001Y-94099999D02*
X143500001Y-94959999D01*
X133900000Y-90550000D02*
X134000001Y-90449999D01*
X140099998Y-92911998D02*
X140099998Y-93538002D01*
X140149998Y-92861998D02*
X140099998Y-92911998D01*
X140149998Y-90559996D02*
X140149998Y-92861998D01*
X140661995Y-94099999D02*
X142640001Y-94099999D01*
X134000001Y-90449999D02*
X140040002Y-90450000D01*
X133900000Y-91350000D02*
X133900000Y-90550000D01*
X140099998Y-93538002D02*
X140661995Y-94099999D01*
X159700000Y-96050000D02*
X157000000Y-98750000D01*
X156350000Y-98750000D02*
X154700000Y-97100000D01*
X157000000Y-98750000D02*
X156350000Y-98750000D01*
X154700000Y-83695998D02*
X154700000Y-80900000D01*
X157050001Y-86045999D02*
X154700000Y-83695998D01*
X157050001Y-89865997D02*
X157050001Y-86045999D01*
X154700000Y-92215998D02*
X157050001Y-89865997D01*
X154700000Y-97100000D02*
X154700000Y-92215998D01*
X142200000Y-95500000D02*
X141550000Y-94850000D01*
X142700000Y-95500000D02*
X142200000Y-95500000D01*
X131050001Y-88099999D02*
X131650000Y-87500000D01*
X131050001Y-89199999D02*
X131050001Y-88099999D01*
X131650000Y-87500000D02*
X132450000Y-87500000D01*
X130750000Y-89500000D02*
X131050001Y-89199999D01*
X142261999Y-84588001D02*
X141750000Y-85100000D01*
X142261999Y-81761999D02*
X142261999Y-84588001D01*
X141750000Y-85100000D02*
X140950000Y-85100000D01*
X141500000Y-81000000D02*
X142261999Y-81761999D01*
X140950000Y-82950000D02*
X140950000Y-84300000D01*
X139000000Y-81000000D02*
X140950000Y-82950000D01*
X120025000Y-92465000D02*
X121000000Y-92465000D01*
X119524988Y-95144990D02*
X119524988Y-92965012D01*
X122700000Y-97600000D02*
X121979998Y-97600000D01*
X119524988Y-92965012D02*
X120025000Y-92465000D01*
X121979998Y-97600000D02*
X119524988Y-95144990D01*
X125200000Y-96425000D02*
X122525000Y-93750000D01*
X125200000Y-97600000D02*
X125200000Y-96425000D01*
X121015000Y-93750000D02*
X121000000Y-93735000D01*
X122525000Y-93750000D02*
X121015000Y-93750000D01*
X143700000Y-97845390D02*
X141454611Y-95600001D01*
X138915416Y-95152517D02*
X137823336Y-95152517D01*
X134700000Y-91350000D02*
X134700000Y-92029181D01*
X134700000Y-92029181D02*
X136771942Y-94101123D01*
X137823336Y-95152517D02*
X136771942Y-94101123D01*
X139362900Y-95600001D02*
X138915416Y-95152517D01*
X141454611Y-95600001D02*
X139362900Y-95600001D01*
X143700000Y-98300000D02*
X143700000Y-97845390D01*
X137700000Y-97268409D02*
X137700000Y-98300000D01*
X137700000Y-98300000D02*
X137700000Y-97024833D01*
X138100000Y-93950000D02*
X138350000Y-93950000D01*
X136300000Y-92150000D02*
X138100000Y-93950000D01*
X136300000Y-91350000D02*
X136300000Y-92150000D01*
X137700000Y-97024833D02*
X138372303Y-96352530D01*
X138700000Y-91350000D02*
X138700000Y-93377178D01*
X140050000Y-94727178D02*
X138700000Y-93377178D01*
X140050000Y-94850000D02*
X140050000Y-94727178D01*
D39*
X131095000Y-64095000D02*
X132200000Y-64095000D01*
X130650000Y-63650000D02*
X131095000Y-64095000D01*
X130650000Y-62800000D02*
X130650000Y-63650000D01*
X120029998Y-62800000D02*
X129150000Y-62800000D01*
X119449999Y-63379999D02*
X120029998Y-62800000D01*
X119449999Y-63950001D02*
X119449999Y-63379999D01*
X118400000Y-65000000D02*
X119449999Y-63950001D01*
D38*
X137900000Y-83900000D02*
X137800000Y-84000000D01*
X137900000Y-82850000D02*
X137900000Y-83900000D01*
D39*
X143000000Y-63900000D02*
X143900000Y-63000000D01*
X140650000Y-63900000D02*
X143000000Y-63900000D01*
D38*
X136681527Y-84627589D02*
X136681527Y-84627589D01*
X137100000Y-84151647D02*
X136801657Y-84449990D01*
X137100000Y-82850000D02*
X137100000Y-84151647D01*
D39*
X138955000Y-64095000D02*
X139150000Y-63900000D01*
X137600000Y-64095000D02*
X138955000Y-64095000D01*
X139085000Y-65365000D02*
X139150000Y-65300000D01*
X137600000Y-65365000D02*
X139085000Y-65365000D01*
X139150000Y-65300000D02*
X139150000Y-66700000D01*
X118400000Y-67000000D02*
X118400000Y-67408998D01*
X120029998Y-69200000D02*
X129150000Y-69200000D01*
X119449999Y-68620001D02*
X120029998Y-69200000D01*
X119449999Y-68049999D02*
X119449999Y-68620001D01*
X118400000Y-67000000D02*
X119449999Y-68049999D01*
D38*
X136063740Y-85567429D02*
X136063740Y-85567429D01*
X136300000Y-83899114D02*
X135961226Y-84237888D01*
X136300000Y-82850000D02*
X136300000Y-83899114D01*
X135961226Y-84237888D02*
X135961226Y-85498757D01*
X135961226Y-85498757D02*
X136261225Y-85798756D01*
D39*
X130650000Y-68305000D02*
X130650000Y-69200000D01*
X131050000Y-67905000D02*
X130650000Y-68305000D01*
X132200000Y-67905000D02*
X131050000Y-67905000D01*
X138955000Y-67905000D02*
X139150000Y-68100000D01*
X137600000Y-67905000D02*
X138955000Y-67905000D01*
X143000000Y-68100000D02*
X143900000Y-69000000D01*
X140650000Y-68100000D02*
X143000000Y-68100000D01*
D38*
X142924999Y-92024999D02*
X143900000Y-93000000D01*
X142924999Y-90274999D02*
X142924999Y-92024999D01*
X141750000Y-89100000D02*
X142924999Y-90274999D01*
X140950000Y-89100000D02*
X141750000Y-89100000D01*
X131890002Y-96300000D02*
X131550000Y-96300000D01*
X132700001Y-95490001D02*
X131890002Y-96300000D01*
X132700001Y-94509997D02*
X132700001Y-95490001D01*
X132450000Y-89900000D02*
X132450000Y-91905702D01*
X132950001Y-94259997D02*
X132700001Y-94509997D01*
X132950001Y-92405703D02*
X132950001Y-94259997D01*
X132450000Y-91905702D02*
X132950001Y-92405703D01*
X130450000Y-96300000D02*
X130400000Y-96350000D01*
X131550000Y-96300000D02*
X130450000Y-96300000D01*
X133299999Y-90385337D02*
X133299999Y-92190001D01*
X135500000Y-82850000D02*
X135500000Y-88185336D01*
X134195693Y-92650012D02*
X136149998Y-94604317D01*
X133760010Y-92650012D02*
X134195693Y-92650012D01*
X133299999Y-92190001D02*
X133760010Y-92650012D01*
X135500000Y-88185336D02*
X133299999Y-90385337D01*
X155385000Y-58035000D02*
X155350000Y-58000000D01*
X155385000Y-59625000D02*
X155385000Y-58035000D01*
X156875010Y-70775010D02*
X155700000Y-69600000D01*
X158277824Y-70775010D02*
X156875010Y-70775010D01*
X158600010Y-70452824D02*
X158277824Y-70775010D01*
X158600010Y-65988808D02*
X158600010Y-70452824D01*
X155385000Y-62773798D02*
X158600010Y-65988808D01*
X155385000Y-59625000D02*
X155385000Y-62773798D01*
X154115000Y-58015000D02*
X154100000Y-58000000D01*
X154115000Y-59625000D02*
X154115000Y-58015000D01*
X154115000Y-59625000D02*
X154115000Y-62069498D01*
X154115000Y-62069498D02*
X157800002Y-65754500D01*
X157800002Y-65754500D02*
X157800002Y-69499998D01*
X157800002Y-69499998D02*
X157700000Y-69600000D01*
X137350010Y-89299971D02*
X136800000Y-89849981D01*
X137350010Y-87449990D02*
X137350010Y-89299971D01*
X139500000Y-85300000D02*
X137350010Y-87449990D01*
X139500000Y-82850000D02*
X139500000Y-85300000D01*
X139650000Y-85700000D02*
X139650000Y-85700000D01*
X126400000Y-92465000D02*
X126400000Y-93735000D01*
X140950000Y-85900000D02*
X139846480Y-85900000D01*
X139846480Y-85900000D02*
X139797512Y-85851032D01*
X126400000Y-92465000D02*
X126934979Y-92999979D01*
X126934979Y-92999979D02*
X127391557Y-92999979D01*
X126345000Y-91250000D02*
X126400000Y-91195000D01*
X124750000Y-91250000D02*
X126345000Y-91250000D01*
X140950000Y-87500000D02*
X138148544Y-87500000D01*
X138148544Y-87500000D02*
X138099272Y-87549272D01*
X126395000Y-95000000D02*
X126400000Y-95005000D01*
X138588310Y-88300000D02*
X138518781Y-88230471D01*
X140950000Y-88300000D02*
X138588310Y-88300000D01*
X126105000Y-95005000D02*
X125100000Y-94000000D01*
X126400000Y-95005000D02*
X126105000Y-95005000D01*
X132250000Y-85700000D02*
X132450000Y-85900000D01*
X130200000Y-85700000D02*
X132250000Y-85700000D01*
X131650000Y-85100000D02*
X132450000Y-85100000D01*
X131450001Y-84900001D02*
X131650000Y-85100000D01*
X131450001Y-83400001D02*
X131450001Y-84900001D01*
X131350000Y-83300000D02*
X131450001Y-83400001D01*
X130200000Y-83300000D02*
X131350000Y-83300000D01*
X139150011Y-97350011D02*
X139700000Y-97900000D01*
X132450000Y-83700000D02*
X132450000Y-84300000D01*
X130950000Y-82200000D02*
X132450000Y-83700000D01*
X132350000Y-86800000D02*
X132450000Y-86700000D01*
X130950000Y-86800000D02*
X132350000Y-86800000D01*
D41*
X125570000Y-84650000D02*
X125200000Y-85020000D01*
X126900000Y-84650000D02*
X125570000Y-84650000D01*
D38*
X129450000Y-89500000D02*
X130750000Y-90800000D01*
X129250000Y-89500000D02*
X129450000Y-89500000D01*
X130750000Y-90800000D02*
X130750000Y-92100000D01*
X140950000Y-90400000D02*
X141600000Y-91050000D01*
X140950000Y-89900000D02*
X140950000Y-90400000D01*
X119924999Y-93194999D02*
X119924999Y-94904999D01*
X122075001Y-93074999D02*
X122015001Y-93134999D01*
X122075001Y-89725001D02*
X122075001Y-93074999D01*
X120025000Y-95005000D02*
X121000000Y-95005000D01*
X122050000Y-89700000D02*
X122075001Y-89725001D01*
X119924999Y-94904999D02*
X120025000Y-95005000D01*
X119984999Y-93134999D02*
X119924999Y-93194999D01*
X122015001Y-93134999D02*
X119984999Y-93134999D01*
X130950000Y-87600000D02*
X130350000Y-88200000D01*
X130950000Y-86800000D02*
X130950000Y-87600000D01*
X130350000Y-88400000D02*
X129250000Y-89500000D01*
X130350000Y-88200000D02*
X130350000Y-88400000D01*
X126900000Y-84650000D02*
X127250000Y-84650000D01*
X127250000Y-84650000D02*
X127750000Y-84150000D01*
X127750000Y-82600000D02*
X129450000Y-80900000D01*
X127750000Y-84150000D02*
X127750000Y-82600000D01*
X129650000Y-80900000D02*
X130950000Y-82200000D01*
X129450000Y-80900000D02*
X129650000Y-80900000D01*
D39*
X139700000Y-98300000D02*
X139700000Y-98300000D01*
X139700000Y-98300000D02*
X139700000Y-97350000D01*
X138708305Y-95652528D02*
X136147472Y-95652528D01*
X139700000Y-97350000D02*
X139700000Y-96644223D01*
X139700000Y-96644223D02*
X138708305Y-95652528D01*
X136147472Y-95652528D02*
X134450000Y-97350000D01*
D38*
X133050000Y-97250000D02*
X133150000Y-97350000D01*
X133050000Y-96300000D02*
X133050000Y-97250000D01*
D39*
X134450000Y-97350000D02*
X133150000Y-97350000D01*
X127963998Y-96500002D02*
X127599998Y-96136002D01*
X133150000Y-97350000D02*
X129113996Y-97350000D01*
X129113996Y-97350000D02*
X128263998Y-96500002D01*
X127599998Y-93832355D02*
X128091558Y-93340795D01*
X127599998Y-96136002D02*
X127599998Y-93832355D01*
X128263998Y-96500002D02*
X127963998Y-96500002D01*
X126900000Y-84650000D02*
X126100000Y-85450000D01*
D38*
X126900000Y-84650000D02*
X125978088Y-85571912D01*
X125978088Y-85571912D02*
X125978088Y-87582731D01*
X125978088Y-87582731D02*
X127895357Y-89500000D01*
X127895357Y-89500000D02*
X129250000Y-89500000D01*
D39*
X126100000Y-85450000D02*
X126100000Y-87499998D01*
X126100000Y-87499998D02*
X126100000Y-89250000D01*
D38*
X125457990Y-89892010D02*
X126100000Y-89250000D01*
X122242010Y-89892010D02*
X125457990Y-89892010D01*
X122050000Y-89700000D02*
X122242010Y-89892010D01*
X140700000Y-91950000D02*
X140700000Y-93250000D01*
X141600000Y-91050000D02*
X140700000Y-91950000D01*
X153700000Y-68400000D02*
X154650000Y-67450000D01*
X153700000Y-69600000D02*
X153700000Y-68400000D01*
X154650000Y-66510000D02*
X154115000Y-65975000D01*
X154650000Y-67450000D02*
X154650000Y-66510000D01*
X152845000Y-65975000D02*
X152845000Y-66795000D01*
X153500000Y-67450000D02*
X154650000Y-67450000D01*
X152845000Y-66795000D02*
X153500000Y-67450000D01*
X152845000Y-65975000D02*
X152845000Y-62195000D01*
X152845000Y-62195000D02*
X151100000Y-60450000D01*
X151100000Y-60450000D02*
X151100000Y-58750000D01*
X151850000Y-58000000D02*
X152600000Y-58000000D01*
X151100000Y-58750000D02*
X151850000Y-58000000D01*
X153350001Y-57249999D02*
X152600000Y-58000000D01*
X156099999Y-57249999D02*
X153350001Y-57249999D01*
X156850000Y-58000000D02*
X156099999Y-57249999D01*
X152200000Y-96600000D02*
X152700000Y-97100000D01*
X152200000Y-94800000D02*
X152200000Y-96600000D01*
D39*
X128091558Y-93340795D02*
X128091558Y-91241558D01*
X127925000Y-91075000D02*
X128091558Y-91241558D01*
X126100000Y-89250000D02*
X127925000Y-91075000D01*
X117300000Y-59000000D02*
X116800000Y-58500000D01*
D40*
X116000000Y-60000000D02*
X117500000Y-58500000D01*
X116000000Y-64250000D02*
X116000000Y-60000000D01*
X118400000Y-59400000D02*
X117500000Y-58500000D01*
X118400000Y-63000000D02*
X118400000Y-59400000D01*
D41*
X121980000Y-84800000D02*
X122200000Y-85020000D01*
X120200000Y-84800000D02*
X121980000Y-84800000D01*
D40*
X120200000Y-97600000D02*
X120200000Y-97290058D01*
D38*
X121475010Y-98875010D02*
X120200000Y-97600000D01*
X129550000Y-93500000D02*
X128400011Y-94649989D01*
D39*
X118400000Y-86600000D02*
X120200000Y-84800000D01*
X118400000Y-87000000D02*
X118400000Y-86600000D01*
D40*
X120100000Y-82009942D02*
X120100000Y-81700000D01*
X118400000Y-83709942D02*
X120100000Y-82009942D01*
X118400000Y-87000000D02*
X118400000Y-83709942D01*
X117445406Y-87000000D02*
X116500000Y-87945406D01*
X118400000Y-87000000D02*
X117445406Y-87000000D01*
X116500000Y-93590058D02*
X120200000Y-97290058D01*
X116500000Y-87945406D02*
X116500000Y-93590058D01*
D38*
X128400011Y-95699989D02*
X128300000Y-95800000D01*
X128400011Y-94649989D02*
X128400011Y-95699989D01*
X126724990Y-98875010D02*
X126175010Y-98875010D01*
X128050000Y-97550000D02*
X126724990Y-98875010D01*
X126175010Y-98875010D02*
X121475010Y-98875010D01*
X135050000Y-81300000D02*
X134700000Y-81650000D01*
X134700000Y-81650000D02*
X134700000Y-82850000D01*
D42*
X138273000Y-61673000D02*
X119927000Y-61673000D01*
X119927000Y-60579552D01*
X120043022Y-60502028D01*
X120402028Y-60143022D01*
X120684098Y-59720876D01*
X120878390Y-59251811D01*
X120977440Y-58753856D01*
X120977440Y-58246144D01*
X120878390Y-57748189D01*
X120844148Y-57665520D01*
X128634607Y-57665520D01*
X128634607Y-57934480D01*
X128687078Y-58198271D01*
X128790004Y-58446756D01*
X128939430Y-58670388D01*
X129129612Y-58860570D01*
X129353244Y-59009996D01*
X129601729Y-59112922D01*
X129865520Y-59165393D01*
X130134480Y-59165393D01*
X130398271Y-59112922D01*
X130646756Y-59009996D01*
X130870388Y-58860570D01*
X131060570Y-58670388D01*
X131209996Y-58446756D01*
X131312922Y-58198271D01*
X131365393Y-57934480D01*
X131365393Y-57665520D01*
X131312922Y-57401729D01*
X131209996Y-57153244D01*
X131060570Y-56929612D01*
X130870388Y-56739430D01*
X130646756Y-56590004D01*
X130398271Y-56487078D01*
X130134480Y-56434607D01*
X129865520Y-56434607D01*
X129601729Y-56487078D01*
X129353244Y-56590004D01*
X129129612Y-56739430D01*
X128939430Y-56929612D01*
X128790004Y-57153244D01*
X128687078Y-57401729D01*
X128634607Y-57665520D01*
X120844148Y-57665520D01*
X120684098Y-57279124D01*
X120402028Y-56856978D01*
X120043022Y-56497972D01*
X119927000Y-56420448D01*
X119927000Y-56252000D01*
X138273000Y-56252000D01*
X138273000Y-61673000D01*
G04 #@! TA.AperFunction,Conductor*
D43*
G36*
X138273000Y-61673000D02*
G01*
X119927000Y-61673000D01*
X119927000Y-60579552D01*
X120043022Y-60502028D01*
X120402028Y-60143022D01*
X120684098Y-59720876D01*
X120878390Y-59251811D01*
X120977440Y-58753856D01*
X120977440Y-58246144D01*
X120878390Y-57748189D01*
X120844148Y-57665520D01*
X128634607Y-57665520D01*
X128634607Y-57934480D01*
X128687078Y-58198271D01*
X128790004Y-58446756D01*
X128939430Y-58670388D01*
X129129612Y-58860570D01*
X129353244Y-59009996D01*
X129601729Y-59112922D01*
X129865520Y-59165393D01*
X130134480Y-59165393D01*
X130398271Y-59112922D01*
X130646756Y-59009996D01*
X130870388Y-58860570D01*
X131060570Y-58670388D01*
X131209996Y-58446756D01*
X131312922Y-58198271D01*
X131365393Y-57934480D01*
X131365393Y-57665520D01*
X131312922Y-57401729D01*
X131209996Y-57153244D01*
X131060570Y-56929612D01*
X130870388Y-56739430D01*
X130646756Y-56590004D01*
X130398271Y-56487078D01*
X130134480Y-56434607D01*
X129865520Y-56434607D01*
X129601729Y-56487078D01*
X129353244Y-56590004D01*
X129129612Y-56739430D01*
X128939430Y-56929612D01*
X128790004Y-57153244D01*
X128687078Y-57401729D01*
X128634607Y-57665520D01*
X120844148Y-57665520D01*
X120684098Y-57279124D01*
X120402028Y-56856978D01*
X120043022Y-56497972D01*
X119927000Y-56420448D01*
X119927000Y-56252000D01*
X138273000Y-56252000D01*
X138273000Y-61673000D01*
G37*
G04 #@! TD.AperFunction*
D42*
X138273000Y-75748000D02*
X116012322Y-75748000D01*
X115854947Y-75732569D01*
X115715420Y-75690443D01*
X115586729Y-75622017D01*
X115473785Y-75529902D01*
X115380883Y-75417603D01*
X115311559Y-75289391D01*
X115268461Y-75150162D01*
X115252000Y-74993550D01*
X115252000Y-74065520D01*
X128634607Y-74065520D01*
X128634607Y-74334480D01*
X128687078Y-74598271D01*
X128790004Y-74846756D01*
X128939430Y-75070388D01*
X129129612Y-75260570D01*
X129353244Y-75409996D01*
X129601729Y-75512922D01*
X129865520Y-75565393D01*
X130134480Y-75565393D01*
X130398271Y-75512922D01*
X130646756Y-75409996D01*
X130870388Y-75260570D01*
X131060570Y-75070388D01*
X131209996Y-74846756D01*
X131312922Y-74598271D01*
X131365393Y-74334480D01*
X131365393Y-74065520D01*
X131312922Y-73801729D01*
X131209996Y-73553244D01*
X131060570Y-73329612D01*
X130870388Y-73139430D01*
X130646756Y-72990004D01*
X130398271Y-72887078D01*
X130134480Y-72834607D01*
X129865520Y-72834607D01*
X129601729Y-72887078D01*
X129353244Y-72990004D01*
X129129612Y-73139430D01*
X128939430Y-73329612D01*
X128790004Y-73553244D01*
X128687078Y-73801729D01*
X128634607Y-74065520D01*
X115252000Y-74065520D01*
X115252000Y-70327000D01*
X138273000Y-70327000D01*
X138273000Y-75748000D01*
G04 #@! TA.AperFunction,Conductor*
D43*
G36*
X138273000Y-75748000D02*
G01*
X116012322Y-75748000D01*
X115854947Y-75732569D01*
X115715420Y-75690443D01*
X115586729Y-75622017D01*
X115473785Y-75529902D01*
X115380883Y-75417603D01*
X115311559Y-75289391D01*
X115268461Y-75150162D01*
X115252000Y-74993550D01*
X115252000Y-74065520D01*
X128634607Y-74065520D01*
X128634607Y-74334480D01*
X128687078Y-74598271D01*
X128790004Y-74846756D01*
X128939430Y-75070388D01*
X129129612Y-75260570D01*
X129353244Y-75409996D01*
X129601729Y-75512922D01*
X129865520Y-75565393D01*
X130134480Y-75565393D01*
X130398271Y-75512922D01*
X130646756Y-75409996D01*
X130870388Y-75260570D01*
X131060570Y-75070388D01*
X131209996Y-74846756D01*
X131312922Y-74598271D01*
X131365393Y-74334480D01*
X131365393Y-74065520D01*
X131312922Y-73801729D01*
X131209996Y-73553244D01*
X131060570Y-73329612D01*
X130870388Y-73139430D01*
X130646756Y-72990004D01*
X130398271Y-72887078D01*
X130134480Y-72834607D01*
X129865520Y-72834607D01*
X129601729Y-72887078D01*
X129353244Y-72990004D01*
X129129612Y-73139430D01*
X128939430Y-73329612D01*
X128790004Y-73553244D01*
X128687078Y-73801729D01*
X128634607Y-74065520D01*
X115252000Y-74065520D01*
X115252000Y-70327000D01*
X138273000Y-70327000D01*
X138273000Y-75748000D01*
G37*
G04 #@! TD.AperFunction*
D42*
X143273000Y-62093584D02*
X143197516Y-62144021D01*
X143044021Y-62297516D01*
X142923420Y-62478007D01*
X142840349Y-62678558D01*
X142798000Y-62891462D01*
X142798000Y-63108538D01*
X142815711Y-63197578D01*
X142740289Y-63273000D01*
X141289561Y-63273000D01*
X141256755Y-63211624D01*
X141203395Y-63146605D01*
X141138376Y-63093245D01*
X141064196Y-63053595D01*
X140983707Y-63029178D01*
X140900000Y-63020934D01*
X140400000Y-63020934D01*
X140316293Y-63029178D01*
X140235804Y-63053595D01*
X140161624Y-63093245D01*
X140096605Y-63146605D01*
X140043245Y-63211624D01*
X140010439Y-63273000D01*
X139789561Y-63273000D01*
X139756755Y-63211624D01*
X139703395Y-63146605D01*
X139638376Y-63093245D01*
X139564196Y-63053595D01*
X139483707Y-63029178D01*
X139400000Y-63020934D01*
X138900000Y-63020934D01*
X138816293Y-63029178D01*
X138735804Y-63053595D01*
X138661624Y-63093245D01*
X138596605Y-63146605D01*
X138574587Y-63173434D01*
X138570177Y-63173000D01*
X131329066Y-63173000D01*
X131329066Y-62350000D01*
X131327000Y-62329022D01*
X131327000Y-62263902D01*
X131366293Y-62275822D01*
X131450000Y-62284066D01*
X132950000Y-62284066D01*
X133033707Y-62275822D01*
X133114196Y-62251405D01*
X133188376Y-62211755D01*
X133230724Y-62177000D01*
X133234680Y-62177000D01*
X133287942Y-62199062D01*
X133428397Y-62227000D01*
X133571603Y-62227000D01*
X133712058Y-62199062D01*
X133765320Y-62177000D01*
X134634680Y-62177000D01*
X134687942Y-62199062D01*
X134828397Y-62227000D01*
X134971603Y-62227000D01*
X135112058Y-62199062D01*
X135165320Y-62177000D01*
X135934680Y-62177000D01*
X135987942Y-62199062D01*
X136128397Y-62227000D01*
X136271603Y-62227000D01*
X136412058Y-62199062D01*
X136465321Y-62177000D01*
X136569275Y-62177000D01*
X136611624Y-62211755D01*
X136685804Y-62251405D01*
X136766293Y-62275822D01*
X136850000Y-62284066D01*
X138350000Y-62284066D01*
X138433707Y-62275822D01*
X138514196Y-62251405D01*
X138588376Y-62211755D01*
X138630725Y-62177000D01*
X138700000Y-62177000D01*
X138724776Y-62174560D01*
X138748601Y-62167333D01*
X138770557Y-62155597D01*
X138789803Y-62139803D01*
X138805597Y-62120557D01*
X138817333Y-62098601D01*
X138824560Y-62074776D01*
X138827000Y-62050000D01*
X138827000Y-56452000D01*
X143273000Y-56452000D01*
X143273000Y-62093584D01*
G04 #@! TA.AperFunction,Conductor*
D43*
G36*
X143273000Y-62093584D02*
G01*
X143197516Y-62144021D01*
X143044021Y-62297516D01*
X142923420Y-62478007D01*
X142840349Y-62678558D01*
X142798000Y-62891462D01*
X142798000Y-63108538D01*
X142815711Y-63197578D01*
X142740289Y-63273000D01*
X141289561Y-63273000D01*
X141256755Y-63211624D01*
X141203395Y-63146605D01*
X141138376Y-63093245D01*
X141064196Y-63053595D01*
X140983707Y-63029178D01*
X140900000Y-63020934D01*
X140400000Y-63020934D01*
X140316293Y-63029178D01*
X140235804Y-63053595D01*
X140161624Y-63093245D01*
X140096605Y-63146605D01*
X140043245Y-63211624D01*
X140010439Y-63273000D01*
X139789561Y-63273000D01*
X139756755Y-63211624D01*
X139703395Y-63146605D01*
X139638376Y-63093245D01*
X139564196Y-63053595D01*
X139483707Y-63029178D01*
X139400000Y-63020934D01*
X138900000Y-63020934D01*
X138816293Y-63029178D01*
X138735804Y-63053595D01*
X138661624Y-63093245D01*
X138596605Y-63146605D01*
X138574587Y-63173434D01*
X138570177Y-63173000D01*
X131329066Y-63173000D01*
X131329066Y-62350000D01*
X131327000Y-62329022D01*
X131327000Y-62263902D01*
X131366293Y-62275822D01*
X131450000Y-62284066D01*
X132950000Y-62284066D01*
X133033707Y-62275822D01*
X133114196Y-62251405D01*
X133188376Y-62211755D01*
X133230724Y-62177000D01*
X133234680Y-62177000D01*
X133287942Y-62199062D01*
X133428397Y-62227000D01*
X133571603Y-62227000D01*
X133712058Y-62199062D01*
X133765320Y-62177000D01*
X134634680Y-62177000D01*
X134687942Y-62199062D01*
X134828397Y-62227000D01*
X134971603Y-62227000D01*
X135112058Y-62199062D01*
X135165320Y-62177000D01*
X135934680Y-62177000D01*
X135987942Y-62199062D01*
X136128397Y-62227000D01*
X136271603Y-62227000D01*
X136412058Y-62199062D01*
X136465321Y-62177000D01*
X136569275Y-62177000D01*
X136611624Y-62211755D01*
X136685804Y-62251405D01*
X136766293Y-62275822D01*
X136850000Y-62284066D01*
X138350000Y-62284066D01*
X138433707Y-62275822D01*
X138514196Y-62251405D01*
X138588376Y-62211755D01*
X138630725Y-62177000D01*
X138700000Y-62177000D01*
X138724776Y-62174560D01*
X138748601Y-62167333D01*
X138770557Y-62155597D01*
X138789803Y-62139803D01*
X138805597Y-62120557D01*
X138817333Y-62098601D01*
X138824560Y-62074776D01*
X138827000Y-62050000D01*
X138827000Y-56452000D01*
X143273000Y-56452000D01*
X143273000Y-62093584D01*
G37*
G04 #@! TD.AperFunction*
D42*
X140043245Y-68788376D02*
X140096605Y-68853395D01*
X140161624Y-68906755D01*
X140235804Y-68946405D01*
X140316293Y-68970822D01*
X140400000Y-68979066D01*
X140900000Y-68979066D01*
X140983707Y-68970822D01*
X141064196Y-68946405D01*
X141138376Y-68906755D01*
X141203395Y-68853395D01*
X141256755Y-68788376D01*
X141289396Y-68727308D01*
X142740597Y-68727308D01*
X142815711Y-68802422D01*
X142798000Y-68891462D01*
X142798000Y-69108538D01*
X142840349Y-69321442D01*
X142923420Y-69521993D01*
X143044021Y-69702484D01*
X143197516Y-69855979D01*
X143273000Y-69906416D01*
X143273000Y-75548000D01*
X138827000Y-75548000D01*
X138827000Y-70000308D01*
X138824560Y-69975532D01*
X138817333Y-69951707D01*
X138805597Y-69929751D01*
X138789803Y-69910505D01*
X138770557Y-69894711D01*
X138748601Y-69882975D01*
X138724776Y-69875748D01*
X138700000Y-69873308D01*
X138679413Y-69873308D01*
X138653395Y-69841605D01*
X138588376Y-69788245D01*
X138514196Y-69748595D01*
X138433707Y-69724178D01*
X138350000Y-69715934D01*
X136850000Y-69715934D01*
X136766293Y-69724178D01*
X136685804Y-69748595D01*
X136611624Y-69788245D01*
X136567949Y-69824089D01*
X136512058Y-69800938D01*
X136371603Y-69773000D01*
X136228397Y-69773000D01*
X136087942Y-69800938D01*
X135955636Y-69855741D01*
X135929345Y-69873308D01*
X135370655Y-69873308D01*
X135344364Y-69855741D01*
X135212058Y-69800938D01*
X135071603Y-69773000D01*
X134928397Y-69773000D01*
X134787942Y-69800938D01*
X134655636Y-69855741D01*
X134629345Y-69873308D01*
X133970655Y-69873308D01*
X133944364Y-69855741D01*
X133812058Y-69800938D01*
X133671603Y-69773000D01*
X133528397Y-69773000D01*
X133387942Y-69800938D01*
X133262622Y-69852847D01*
X133253395Y-69841605D01*
X133188376Y-69788245D01*
X133114196Y-69748595D01*
X133033707Y-69724178D01*
X132950000Y-69715934D01*
X131450000Y-69715934D01*
X131427000Y-69718199D01*
X131427000Y-68827000D01*
X138570177Y-68827000D01*
X138574587Y-68826566D01*
X138596605Y-68853395D01*
X138661624Y-68906755D01*
X138735804Y-68946405D01*
X138816293Y-68970822D01*
X138900000Y-68979066D01*
X139400000Y-68979066D01*
X139483707Y-68970822D01*
X139564196Y-68946405D01*
X139638376Y-68906755D01*
X139703395Y-68853395D01*
X139756755Y-68788376D01*
X139789396Y-68727308D01*
X140010604Y-68727308D01*
X140043245Y-68788376D01*
G04 #@! TA.AperFunction,Conductor*
D43*
G36*
X140043245Y-68788376D02*
G01*
X140096605Y-68853395D01*
X140161624Y-68906755D01*
X140235804Y-68946405D01*
X140316293Y-68970822D01*
X140400000Y-68979066D01*
X140900000Y-68979066D01*
X140983707Y-68970822D01*
X141064196Y-68946405D01*
X141138376Y-68906755D01*
X141203395Y-68853395D01*
X141256755Y-68788376D01*
X141289396Y-68727308D01*
X142740597Y-68727308D01*
X142815711Y-68802422D01*
X142798000Y-68891462D01*
X142798000Y-69108538D01*
X142840349Y-69321442D01*
X142923420Y-69521993D01*
X143044021Y-69702484D01*
X143197516Y-69855979D01*
X143273000Y-69906416D01*
X143273000Y-75548000D01*
X138827000Y-75548000D01*
X138827000Y-70000308D01*
X138824560Y-69975532D01*
X138817333Y-69951707D01*
X138805597Y-69929751D01*
X138789803Y-69910505D01*
X138770557Y-69894711D01*
X138748601Y-69882975D01*
X138724776Y-69875748D01*
X138700000Y-69873308D01*
X138679413Y-69873308D01*
X138653395Y-69841605D01*
X138588376Y-69788245D01*
X138514196Y-69748595D01*
X138433707Y-69724178D01*
X138350000Y-69715934D01*
X136850000Y-69715934D01*
X136766293Y-69724178D01*
X136685804Y-69748595D01*
X136611624Y-69788245D01*
X136567949Y-69824089D01*
X136512058Y-69800938D01*
X136371603Y-69773000D01*
X136228397Y-69773000D01*
X136087942Y-69800938D01*
X135955636Y-69855741D01*
X135929345Y-69873308D01*
X135370655Y-69873308D01*
X135344364Y-69855741D01*
X135212058Y-69800938D01*
X135071603Y-69773000D01*
X134928397Y-69773000D01*
X134787942Y-69800938D01*
X134655636Y-69855741D01*
X134629345Y-69873308D01*
X133970655Y-69873308D01*
X133944364Y-69855741D01*
X133812058Y-69800938D01*
X133671603Y-69773000D01*
X133528397Y-69773000D01*
X133387942Y-69800938D01*
X133262622Y-69852847D01*
X133253395Y-69841605D01*
X133188376Y-69788245D01*
X133114196Y-69748595D01*
X133033707Y-69724178D01*
X132950000Y-69715934D01*
X131450000Y-69715934D01*
X131427000Y-69718199D01*
X131427000Y-68827000D01*
X138570177Y-68827000D01*
X138574587Y-68826566D01*
X138596605Y-68853395D01*
X138661624Y-68906755D01*
X138735804Y-68946405D01*
X138816293Y-68970822D01*
X138900000Y-68979066D01*
X139400000Y-68979066D01*
X139483707Y-68970822D01*
X139564196Y-68946405D01*
X139638376Y-68906755D01*
X139703395Y-68853395D01*
X139756755Y-68788376D01*
X139789396Y-68727308D01*
X140010604Y-68727308D01*
X140043245Y-68788376D01*
G37*
G04 #@! TD.AperFunction*
D42*
X130032073Y-63772912D02*
X130056640Y-63853897D01*
X130067926Y-63891103D01*
X130126148Y-64000028D01*
X130204500Y-64095501D01*
X130228422Y-64115133D01*
X130629866Y-64516578D01*
X130649499Y-64540501D01*
X130744972Y-64618853D01*
X130853897Y-64677075D01*
X130972087Y-64712927D01*
X131094999Y-64725033D01*
X131125793Y-64722000D01*
X131175368Y-64722000D01*
X131211624Y-64751755D01*
X131285804Y-64791405D01*
X131366293Y-64815822D01*
X131450000Y-64824066D01*
X132950000Y-64824066D01*
X133033707Y-64815822D01*
X133114196Y-64791405D01*
X133188376Y-64751755D01*
X133253395Y-64698395D01*
X133306755Y-64633376D01*
X133346405Y-64559196D01*
X133370822Y-64478707D01*
X133379066Y-64395000D01*
X133379066Y-63795000D01*
X133372369Y-63727000D01*
X136427631Y-63727000D01*
X136420934Y-63795000D01*
X136420934Y-64395000D01*
X136429178Y-64478707D01*
X136453595Y-64559196D01*
X136493245Y-64633376D01*
X136546605Y-64698395D01*
X136585116Y-64730000D01*
X136546605Y-64761605D01*
X136493245Y-64826624D01*
X136453595Y-64900804D01*
X136429178Y-64981293D01*
X136420934Y-65065000D01*
X136420934Y-65665000D01*
X136429178Y-65748707D01*
X136453595Y-65829196D01*
X136493245Y-65903376D01*
X136546605Y-65968395D01*
X136611624Y-66021755D01*
X136685804Y-66061405D01*
X136766293Y-66085822D01*
X136850000Y-66094066D01*
X138350000Y-66094066D01*
X138433707Y-66085822D01*
X138443177Y-66082949D01*
X138443177Y-67187051D01*
X138433707Y-67184178D01*
X138350000Y-67175934D01*
X136850000Y-67175934D01*
X136766293Y-67184178D01*
X136685804Y-67208595D01*
X136611624Y-67248245D01*
X136546605Y-67301605D01*
X136493245Y-67366624D01*
X136453595Y-67440804D01*
X136429178Y-67521293D01*
X136420934Y-67605000D01*
X136420934Y-68205000D01*
X136427631Y-68273000D01*
X133372369Y-68273000D01*
X133379066Y-68205000D01*
X133379066Y-67605000D01*
X133370822Y-67521293D01*
X133346405Y-67440804D01*
X133306755Y-67366624D01*
X133253395Y-67301605D01*
X133188376Y-67248245D01*
X133114196Y-67208595D01*
X133033707Y-67184178D01*
X132950000Y-67175934D01*
X131450000Y-67175934D01*
X131366293Y-67184178D01*
X131285804Y-67208595D01*
X131211624Y-67248245D01*
X131175368Y-67278000D01*
X131080791Y-67278000D01*
X131049999Y-67274967D01*
X131019207Y-67278000D01*
X131019206Y-67278000D01*
X130927087Y-67287073D01*
X130808897Y-67322925D01*
X130699972Y-67381147D01*
X130604499Y-67459499D01*
X130584862Y-67483427D01*
X130228427Y-67839862D01*
X130204499Y-67859499D01*
X130126147Y-67954973D01*
X130067925Y-68063898D01*
X130032073Y-68182087D01*
X130032073Y-68182088D01*
X130023119Y-68273000D01*
X120076999Y-68273000D01*
X120076999Y-68080793D01*
X120080032Y-68049999D01*
X120067926Y-67927086D01*
X120032074Y-67808897D01*
X120032074Y-67808896D01*
X119973852Y-67699971D01*
X119895500Y-67604498D01*
X119871578Y-67584866D01*
X119727000Y-67440288D01*
X119727000Y-64559712D01*
X119871578Y-64415134D01*
X119895500Y-64395502D01*
X119973852Y-64300029D01*
X120032074Y-64191104D01*
X120067926Y-64072914D01*
X120076999Y-63980795D01*
X120076999Y-63980794D01*
X120080032Y-63950001D01*
X120076999Y-63919207D01*
X120076999Y-63727000D01*
X130027551Y-63727000D01*
X130032073Y-63772912D01*
G04 #@! TA.AperFunction,Conductor*
D43*
G36*
X130032073Y-63772912D02*
G01*
X130056640Y-63853897D01*
X130067926Y-63891103D01*
X130126148Y-64000028D01*
X130204500Y-64095501D01*
X130228422Y-64115133D01*
X130629866Y-64516578D01*
X130649499Y-64540501D01*
X130744972Y-64618853D01*
X130853897Y-64677075D01*
X130972087Y-64712927D01*
X131094999Y-64725033D01*
X131125793Y-64722000D01*
X131175368Y-64722000D01*
X131211624Y-64751755D01*
X131285804Y-64791405D01*
X131366293Y-64815822D01*
X131450000Y-64824066D01*
X132950000Y-64824066D01*
X133033707Y-64815822D01*
X133114196Y-64791405D01*
X133188376Y-64751755D01*
X133253395Y-64698395D01*
X133306755Y-64633376D01*
X133346405Y-64559196D01*
X133370822Y-64478707D01*
X133379066Y-64395000D01*
X133379066Y-63795000D01*
X133372369Y-63727000D01*
X136427631Y-63727000D01*
X136420934Y-63795000D01*
X136420934Y-64395000D01*
X136429178Y-64478707D01*
X136453595Y-64559196D01*
X136493245Y-64633376D01*
X136546605Y-64698395D01*
X136585116Y-64730000D01*
X136546605Y-64761605D01*
X136493245Y-64826624D01*
X136453595Y-64900804D01*
X136429178Y-64981293D01*
X136420934Y-65065000D01*
X136420934Y-65665000D01*
X136429178Y-65748707D01*
X136453595Y-65829196D01*
X136493245Y-65903376D01*
X136546605Y-65968395D01*
X136611624Y-66021755D01*
X136685804Y-66061405D01*
X136766293Y-66085822D01*
X136850000Y-66094066D01*
X138350000Y-66094066D01*
X138433707Y-66085822D01*
X138443177Y-66082949D01*
X138443177Y-67187051D01*
X138433707Y-67184178D01*
X138350000Y-67175934D01*
X136850000Y-67175934D01*
X136766293Y-67184178D01*
X136685804Y-67208595D01*
X136611624Y-67248245D01*
X136546605Y-67301605D01*
X136493245Y-67366624D01*
X136453595Y-67440804D01*
X136429178Y-67521293D01*
X136420934Y-67605000D01*
X136420934Y-68205000D01*
X136427631Y-68273000D01*
X133372369Y-68273000D01*
X133379066Y-68205000D01*
X133379066Y-67605000D01*
X133370822Y-67521293D01*
X133346405Y-67440804D01*
X133306755Y-67366624D01*
X133253395Y-67301605D01*
X133188376Y-67248245D01*
X133114196Y-67208595D01*
X133033707Y-67184178D01*
X132950000Y-67175934D01*
X131450000Y-67175934D01*
X131366293Y-67184178D01*
X131285804Y-67208595D01*
X131211624Y-67248245D01*
X131175368Y-67278000D01*
X131080791Y-67278000D01*
X131049999Y-67274967D01*
X131019207Y-67278000D01*
X131019206Y-67278000D01*
X130927087Y-67287073D01*
X130808897Y-67322925D01*
X130699972Y-67381147D01*
X130604499Y-67459499D01*
X130584862Y-67483427D01*
X130228427Y-67839862D01*
X130204499Y-67859499D01*
X130126147Y-67954973D01*
X130067925Y-68063898D01*
X130032073Y-68182087D01*
X130032073Y-68182088D01*
X130023119Y-68273000D01*
X120076999Y-68273000D01*
X120076999Y-68080793D01*
X120080032Y-68049999D01*
X120067926Y-67927086D01*
X120032074Y-67808897D01*
X120032074Y-67808896D01*
X119973852Y-67699971D01*
X119895500Y-67604498D01*
X119871578Y-67584866D01*
X119727000Y-67440288D01*
X119727000Y-64559712D01*
X119871578Y-64415134D01*
X119895500Y-64395502D01*
X119973852Y-64300029D01*
X120032074Y-64191104D01*
X120067926Y-64072914D01*
X120076999Y-63980795D01*
X120076999Y-63980794D01*
X120080032Y-63950001D01*
X120076999Y-63919207D01*
X120076999Y-63727000D01*
X130027551Y-63727000D01*
X130032073Y-63772912D01*
G37*
G04 #@! TD.AperFunction*
M02*
