M48
; DRILL file {KiCad (5.1.9)-1} date 05/05/21 15:37:56
; FORMAT={3:3/ absolute / metric / suppress leading zeros}
; #@! TF.CreationDate,2021-05-05T15:37:56+09:00
; #@! TF.GenerationSoftware,Kicad,Pcbnew,(5.1.9)-1
FMAT,2
METRIC,TZ
T1C0.300
T2C0.500
T3C0.750
T4C0.800
T5C0.950
T6C1.000
T7C1.999
T8C1.000
T9C4.000
%
G90
G05
T1
X119900Y-65300
X119900Y-66000
X119900Y-66700
X120250Y-88900
X120600Y-65300
X120600Y-66000
X120600Y-66700
X121300Y-65300
X121300Y-66000
X121300Y-66700
X122000Y-65300
X122000Y-66000
X122000Y-66700
X122700Y-65300
X122700Y-66000
X122700Y-66700
X122900Y-87000
X123000Y-88800
X123250Y-86500
X123400Y-65300
X123400Y-66000
X123400Y-66700
X123400Y-89250
X124000Y-89250
X124150Y-86500
X124400Y-56550
X124400Y-60200
X124400Y-88800
X124500Y-87000
X124750Y-91250
X125100Y-60200
X125100Y-94000
X125800Y-60200
X126500Y-60200
X127200Y-60200
X127392Y-93000
X127900Y-60200
X127950Y-87900
X128050Y-97550
X128300Y-95800
X128500Y-82950
X128500Y-85800
X128600Y-60200
X128792Y-91467
X128800Y-84200
X129300Y-60200
X129300Y-64900
X129300Y-65900
X129300Y-67000
X129332Y-96040
X130400Y-96350
X130900Y-64900
X130900Y-65900
X130900Y-67000
X131500Y-60500
X131600Y-71400
X132417Y-81034
X133500Y-60500
X133500Y-61500
X133500Y-62300
X133500Y-63000
X133500Y-64900
X133500Y-66000
X133500Y-67000
X133500Y-68100
X133600Y-69000
X133600Y-69700
X133600Y-70500
X133600Y-71400
X134400Y-94900
X134495Y-93805
X134750Y-85050
X134900Y-60500
X134900Y-61500
X134900Y-62300
X134900Y-63000
X134900Y-64900
X134900Y-66000
X134900Y-67000
X134900Y-68100
X135000Y-69000
X135000Y-69700
X135000Y-70500
X135000Y-71400
X136150Y-94604
X136200Y-61500
X136200Y-62300
X136200Y-63000
X136200Y-64900
X136200Y-66000
X136200Y-67000
X136200Y-68100
X136261Y-85799
X136300Y-60500
X136300Y-69000
X136300Y-69700
X136300Y-70500
X136300Y-71400
X136800Y-89850
X136802Y-84450
X137800Y-84000
X138099Y-87549
X138100Y-56550
X138100Y-60500
X138100Y-71400
X138100Y-75450
X138350Y-93950
X138372Y-96353
X138519Y-88230
X139000Y-56600
X139000Y-75400
X139525Y-92458
X139798Y-85851
X140700Y-93250
X141000Y-56600
X141200Y-75400
X142350Y-92550
X143100Y-56600
X143100Y-75400
X143500Y-96200
X144475Y-94600
T2
X120200Y-88000
X123700Y-83600
X126950Y-87337
X139700Y-97350
X139700Y-98300
X139700Y-99250
X141700Y-97300
X141700Y-98250
X141700Y-99200
X143250Y-84950
X151950Y-59600
X157050Y-67550
T3
X151700Y-69600
X152700Y-97100
X153700Y-69600
X154700Y-97100
X155700Y-69600
X156700Y-97100
X157700Y-69600
T4
X116000Y-64250
X116000Y-67750
X118400Y-63000
X118400Y-65000
X118400Y-67000
X118400Y-69000
X118400Y-87000
X118400Y-89000
X118400Y-91000
X118400Y-93000
X130100Y-98500
X132100Y-98500
X143900Y-63000
X143900Y-65000
X143900Y-67000
X143900Y-69000
X143900Y-87000
X143900Y-89000
X143900Y-91000
X143900Y-93000
T5
X117600Y-81700
X117700Y-97600
X120100Y-81700
X120200Y-97600
X122600Y-81700
X122700Y-97600
X125100Y-81700
X125200Y-97600
T6
X136500Y-81000
X139000Y-81000
X141500Y-81000
X144000Y-81000
T7
X118400Y-58500
X118400Y-73500
X141000Y-59700
X141000Y-72300
T8
X152250Y-84150
X152350Y-90850
X157250Y-84150
X157350Y-90850
T9
X154750Y-87150
T0
M30
