G04 #@! TF.GenerationSoftware,KiCad,Pcbnew,(5.1.9)-1*
G04 #@! TF.CreationDate,2021-05-05T15:37:49+09:00*
G04 #@! TF.ProjectId,FreeServoProject,46726565-5365-4727-966f-50726f6a6563,rev?*
G04 #@! TF.SameCoordinates,Original*
G04 #@! TF.FileFunction,Legend,Top*
G04 #@! TF.FilePolarity,Positive*
%FSLAX46Y46*%
G04 Gerber Fmt 4.6, Leading zero omitted, Abs format (unit mm)*
G04 Created by KiCad (PCBNEW (5.1.9)-1) date 2021-05-05 15:37:49*
%MOMM*%
%LPD*%
G01*
G04 APERTURE LIST*
%ADD10C,0.150000*%
%ADD11C,0.120000*%
%ADD12C,0.100000*%
G04 APERTURE END LIST*
D10*
X120138095Y-74900000D02*
X120042857Y-74852380D01*
X119900000Y-74852380D01*
X119757142Y-74900000D01*
X119661904Y-74995238D01*
X119614285Y-75090476D01*
X119566666Y-75280952D01*
X119566666Y-75423809D01*
X119614285Y-75614285D01*
X119661904Y-75709523D01*
X119757142Y-75804761D01*
X119900000Y-75852380D01*
X119995238Y-75852380D01*
X120138095Y-75804761D01*
X120185714Y-75757142D01*
X120185714Y-75423809D01*
X119995238Y-75423809D01*
X120614285Y-75852380D02*
X120614285Y-74852380D01*
X121185714Y-75852380D01*
X121185714Y-74852380D01*
X121661904Y-75852380D02*
X121661904Y-74852380D01*
X121900000Y-74852380D01*
X122042857Y-74900000D01*
X122138095Y-74995238D01*
X122185714Y-75090476D01*
X122233333Y-75280952D01*
X122233333Y-75423809D01*
X122185714Y-75614285D01*
X122138095Y-75709523D01*
X122042857Y-75804761D01*
X121900000Y-75852380D01*
X121661904Y-75852380D01*
X119366666Y-56152380D02*
X119700000Y-57152380D01*
X120033333Y-56152380D01*
X120366666Y-57152380D02*
X120366666Y-56152380D01*
X120604761Y-56152380D01*
X120747619Y-56200000D01*
X120842857Y-56295238D01*
X120890476Y-56390476D01*
X120938095Y-56580952D01*
X120938095Y-56723809D01*
X120890476Y-56914285D01*
X120842857Y-57009523D01*
X120747619Y-57104761D01*
X120604761Y-57152380D01*
X120366666Y-57152380D01*
X121366666Y-57152380D02*
X121366666Y-56152380D01*
X121604761Y-56152380D01*
X121747619Y-56200000D01*
X121842857Y-56295238D01*
X121890476Y-56390476D01*
X121938095Y-56580952D01*
X121938095Y-56723809D01*
X121890476Y-56914285D01*
X121842857Y-57009523D01*
X121747619Y-57104761D01*
X121604761Y-57152380D01*
X121366666Y-57152380D01*
X139500000Y-74652380D02*
X139690476Y-74652380D01*
X139785714Y-74700000D01*
X139880952Y-74795238D01*
X139928571Y-74985714D01*
X139928571Y-75319047D01*
X139880952Y-75509523D01*
X139785714Y-75604761D01*
X139690476Y-75652380D01*
X139500000Y-75652380D01*
X139404761Y-75604761D01*
X139309523Y-75509523D01*
X139261904Y-75319047D01*
X139261904Y-74985714D01*
X139309523Y-74795238D01*
X139404761Y-74700000D01*
X139500000Y-74652380D01*
X140357142Y-74652380D02*
X140357142Y-75461904D01*
X140404761Y-75557142D01*
X140452380Y-75604761D01*
X140547619Y-75652380D01*
X140738095Y-75652380D01*
X140833333Y-75604761D01*
X140880952Y-75557142D01*
X140928571Y-75461904D01*
X140928571Y-74652380D01*
X141261904Y-74652380D02*
X141833333Y-74652380D01*
X141547619Y-75652380D02*
X141547619Y-74652380D01*
X142500000Y-75128571D02*
X142642857Y-75176190D01*
X142690476Y-75223809D01*
X142738095Y-75319047D01*
X142738095Y-75461904D01*
X142690476Y-75557142D01*
X142642857Y-75604761D01*
X142547619Y-75652380D01*
X142166666Y-75652380D01*
X142166666Y-74652380D01*
X142500000Y-74652380D01*
X142595238Y-74700000D01*
X142642857Y-74747619D01*
X142690476Y-74842857D01*
X142690476Y-74938095D01*
X142642857Y-75033333D01*
X142595238Y-75080952D01*
X142500000Y-75128571D01*
X142166666Y-75128571D01*
X139471428Y-56352380D02*
X139661904Y-56352380D01*
X139757142Y-56400000D01*
X139852380Y-56495238D01*
X139900000Y-56685714D01*
X139900000Y-57019047D01*
X139852380Y-57209523D01*
X139757142Y-57304761D01*
X139661904Y-57352380D01*
X139471428Y-57352380D01*
X139376190Y-57304761D01*
X139280952Y-57209523D01*
X139233333Y-57019047D01*
X139233333Y-56685714D01*
X139280952Y-56495238D01*
X139376190Y-56400000D01*
X139471428Y-56352380D01*
X140328571Y-56352380D02*
X140328571Y-57161904D01*
X140376190Y-57257142D01*
X140423809Y-57304761D01*
X140519047Y-57352380D01*
X140709523Y-57352380D01*
X140804761Y-57304761D01*
X140852380Y-57257142D01*
X140900000Y-57161904D01*
X140900000Y-56352380D01*
X141233333Y-56352380D02*
X141804761Y-56352380D01*
X141519047Y-57352380D02*
X141519047Y-56352380D01*
X142090476Y-57066666D02*
X142566666Y-57066666D01*
X141995238Y-57352380D02*
X142328571Y-56352380D01*
X142661904Y-57352380D01*
D11*
X151840000Y-97240000D02*
X151560000Y-97240000D01*
X151560000Y-97240000D02*
X151560000Y-95640000D01*
X151560000Y-95640000D02*
X150640000Y-95640000D01*
X150640000Y-95640000D02*
X150640000Y-103460000D01*
X150640000Y-103460000D02*
X158760000Y-103460000D01*
X158760000Y-103460000D02*
X158760000Y-95640000D01*
X158760000Y-95640000D02*
X157840000Y-95640000D01*
X157840000Y-95640000D02*
X157840000Y-97240000D01*
X157840000Y-97240000D02*
X157560000Y-97240000D01*
X153200000Y-103460000D02*
X153200000Y-99100000D01*
X153200000Y-99100000D02*
X156200000Y-99100000D01*
X156200000Y-99100000D02*
X156200000Y-103460000D01*
X150640000Y-97240000D02*
X151560000Y-97240000D01*
X158760000Y-97240000D02*
X157840000Y-97240000D01*
X151400000Y-99600000D02*
X151400000Y-101200000D01*
X151400000Y-101200000D02*
X152400000Y-101200000D01*
X152400000Y-101200000D02*
X152400000Y-99600000D01*
X152400000Y-99600000D02*
X151400000Y-99600000D01*
X158000000Y-99600000D02*
X158000000Y-101200000D01*
X158000000Y-101200000D02*
X157000000Y-101200000D01*
X157000000Y-101200000D02*
X157000000Y-99600000D01*
X157000000Y-99600000D02*
X158000000Y-99600000D01*
X152400000Y-101200000D02*
X152400000Y-103460000D01*
X151900000Y-101200000D02*
X151900000Y-103460000D01*
X151840000Y-97240000D02*
X151840000Y-96025000D01*
X130900000Y-82900000D02*
X129500000Y-82900000D01*
X129500000Y-82900000D02*
X129500000Y-86100000D01*
X129500000Y-86100000D02*
X130900000Y-86100000D01*
X130900000Y-82900000D02*
X130900000Y-86100000D01*
X114990000Y-79990000D02*
X114990000Y-84010000D01*
X114990000Y-84010000D02*
X127710000Y-84010000D01*
X127710000Y-84010000D02*
X127710000Y-79990000D01*
X127710000Y-79990000D02*
X114990000Y-79990000D01*
X114990000Y-81700000D02*
X115490000Y-81700000D01*
X115490000Y-81700000D02*
X115490000Y-80490000D01*
X115490000Y-80490000D02*
X127210000Y-80490000D01*
X127210000Y-80490000D02*
X127210000Y-81700000D01*
X127210000Y-81700000D02*
X127710000Y-81700000D01*
X114990000Y-82510000D02*
X115990000Y-82510000D01*
X115990000Y-82510000D02*
X115990000Y-84010000D01*
X127710000Y-82510000D02*
X126710000Y-82510000D01*
X126710000Y-82510000D02*
X126710000Y-84010000D01*
X114690000Y-81810000D02*
X114690000Y-84310000D01*
X114690000Y-84310000D02*
X117190000Y-84310000D01*
X144960000Y-70060000D02*
X143900000Y-70060000D01*
X144960000Y-69000000D02*
X144960000Y-70060000D01*
X144960000Y-68000000D02*
X142840000Y-68000000D01*
X142840000Y-68000000D02*
X142840000Y-61940000D01*
X144960000Y-68000000D02*
X144960000Y-61940000D01*
X144960000Y-61940000D02*
X142840000Y-61940000D01*
X119460000Y-70060000D02*
X118400000Y-70060000D01*
X119460000Y-69000000D02*
X119460000Y-70060000D01*
X119460000Y-68000000D02*
X117340000Y-68000000D01*
X117340000Y-68000000D02*
X117340000Y-61940000D01*
X119460000Y-68000000D02*
X119460000Y-61940000D01*
X119460000Y-61940000D02*
X117340000Y-61940000D01*
X116000000Y-62050000D02*
X116000000Y-63250000D01*
X116650000Y-62650000D02*
X115350000Y-62650000D01*
D10*
X114900000Y-62000000D02*
X114900000Y-70000000D01*
X114900000Y-70000000D02*
X103400000Y-70000000D01*
X103400000Y-70000000D02*
X103400000Y-62000000D01*
X103400000Y-62000000D02*
X114900000Y-62000000D01*
D12*
G36*
X103400000Y-70000000D02*
G01*
X103400000Y-66000000D01*
X114900000Y-66000000D01*
X114900000Y-70000000D01*
X103400000Y-70000000D01*
G37*
X103400000Y-70000000D02*
X103400000Y-66000000D01*
X114900000Y-66000000D01*
X114900000Y-70000000D01*
X103400000Y-70000000D01*
D11*
X122620000Y-68300000D02*
X122620000Y-70300000D01*
X125580000Y-70300000D02*
X125580000Y-68300000D01*
X129040000Y-99560000D02*
X129040000Y-98500000D01*
X130100000Y-99560000D02*
X129040000Y-99560000D01*
X131100000Y-99560000D02*
X131100000Y-97440000D01*
X131100000Y-97440000D02*
X133160000Y-97440000D01*
X131100000Y-99560000D02*
X133160000Y-99560000D01*
X133160000Y-99560000D02*
X133160000Y-97440000D01*
X119350000Y-85300000D02*
X119350000Y-86300000D01*
X121050000Y-86300000D02*
X121050000Y-85300000D01*
X119620000Y-68300000D02*
X119620000Y-70300000D01*
X122580000Y-70300000D02*
X122580000Y-68300000D01*
X125620000Y-68300000D02*
X125620000Y-70300000D01*
X128580000Y-70300000D02*
X128580000Y-68300000D01*
X122580000Y-63700000D02*
X122580000Y-61700000D01*
X119620000Y-61700000D02*
X119620000Y-63700000D01*
X125580000Y-63700000D02*
X125580000Y-61700000D01*
X122620000Y-61700000D02*
X122620000Y-63700000D01*
X128580000Y-63700000D02*
X128580000Y-61700000D01*
X125620000Y-61700000D02*
X125620000Y-63700000D01*
X126300000Y-85750000D02*
X126300000Y-85050000D01*
X127500000Y-85050000D02*
X127500000Y-85750000D01*
X130550000Y-81500000D02*
X129850000Y-81500000D01*
X129850000Y-80300000D02*
X130550000Y-80300000D01*
X129850000Y-81600000D02*
X130550000Y-81600000D01*
X130550000Y-82800000D02*
X129850000Y-82800000D01*
X142200000Y-91450000D02*
X142200000Y-92150000D01*
X141000000Y-92150000D02*
X141000000Y-91450000D01*
X129650000Y-90200000D02*
X130350000Y-90200000D01*
X130350000Y-91400000D02*
X129650000Y-91400000D01*
X129650000Y-91500000D02*
X130350000Y-91500000D01*
X130350000Y-92700000D02*
X129650000Y-92700000D01*
X129950000Y-88800000D02*
X129250000Y-88800000D01*
X129250000Y-87600000D02*
X129950000Y-87600000D01*
X133350000Y-94100000D02*
X132650000Y-94100000D01*
X132650000Y-92900000D02*
X133350000Y-92900000D01*
X142400000Y-65650000D02*
X142400000Y-66350000D01*
X141200000Y-66350000D02*
X141200000Y-65650000D01*
X121650000Y-90300000D02*
X120950000Y-90300000D01*
X120950000Y-89100000D02*
X121650000Y-89100000D01*
X155050000Y-66850000D02*
X155750000Y-66850000D01*
X155750000Y-68050000D02*
X155050000Y-68050000D01*
X159100000Y-95650000D02*
X159100000Y-94950000D01*
X160300000Y-94950000D02*
X160300000Y-95650000D01*
X144800000Y-96000000D02*
X144800000Y-95000000D01*
X144800000Y-95000000D02*
X142700000Y-95000000D01*
X144800000Y-96000000D02*
X142700000Y-96000000D01*
X132100000Y-94300000D02*
X133950000Y-94300000D01*
X132100000Y-95500000D02*
X133950000Y-95500000D01*
X133950000Y-95500000D02*
X133950000Y-94300000D01*
X129650000Y-88900000D02*
X130350000Y-88900000D01*
X130350000Y-90100000D02*
X129650000Y-90100000D01*
X114790000Y-100210000D02*
X117290000Y-100210000D01*
X114790000Y-97710000D02*
X114790000Y-100210000D01*
X126810000Y-98410000D02*
X126810000Y-99910000D01*
X127810000Y-98410000D02*
X126810000Y-98410000D01*
X116090000Y-98410000D02*
X116090000Y-99910000D01*
X115090000Y-98410000D02*
X116090000Y-98410000D01*
X127310000Y-97600000D02*
X127810000Y-97600000D01*
X127310000Y-96390000D02*
X127310000Y-97600000D01*
X115590000Y-96390000D02*
X127310000Y-96390000D01*
X115590000Y-97600000D02*
X115590000Y-96390000D01*
X115090000Y-97600000D02*
X115590000Y-97600000D01*
X127810000Y-95890000D02*
X115090000Y-95890000D01*
X127810000Y-99910000D02*
X127810000Y-95890000D01*
X115090000Y-99910000D02*
X127810000Y-99910000D01*
X115090000Y-95890000D02*
X115090000Y-99910000D01*
X133800000Y-80620000D02*
X134800000Y-80620000D01*
X134800000Y-81980000D02*
X133800000Y-81980000D01*
X141300000Y-95530000D02*
X140300000Y-95530000D01*
X140300000Y-94170000D02*
X141300000Y-94170000D01*
X129800000Y-92820000D02*
X130800000Y-92820000D01*
X130800000Y-94180000D02*
X129800000Y-94180000D01*
X130800000Y-95580000D02*
X129800000Y-95580000D01*
X129800000Y-94220000D02*
X130800000Y-94220000D01*
X130400000Y-63480000D02*
X129400000Y-63480000D01*
X129400000Y-62120000D02*
X130400000Y-62120000D01*
X140400000Y-64580000D02*
X139400000Y-64580000D01*
X139400000Y-63220000D02*
X140400000Y-63220000D01*
X140400000Y-67380000D02*
X139400000Y-67380000D01*
X139400000Y-66020000D02*
X140400000Y-66020000D01*
X140400000Y-65980000D02*
X139400000Y-65980000D01*
X139400000Y-64620000D02*
X140400000Y-64620000D01*
X129400000Y-68520000D02*
X130400000Y-68520000D01*
X130400000Y-69880000D02*
X129400000Y-69880000D01*
X139400000Y-67420000D02*
X140400000Y-67420000D01*
X140400000Y-68780000D02*
X139400000Y-68780000D01*
X132800000Y-96980000D02*
X131800000Y-96980000D01*
X131800000Y-95620000D02*
X132800000Y-95620000D01*
X155600000Y-57320000D02*
X156600000Y-57320000D01*
X156600000Y-58680000D02*
X155600000Y-58680000D01*
X152850000Y-57320000D02*
X153850000Y-57320000D01*
X153850000Y-58680000D02*
X152850000Y-58680000D01*
D10*
X149250000Y-93650000D02*
X149250000Y-87150000D01*
X160250000Y-93650000D02*
X149250000Y-93650000D01*
X160250000Y-87150000D02*
X160250000Y-93650000D01*
X149250000Y-87150000D02*
G75*
G02*
X160250000Y-87150000I5500000J0D01*
G01*
D11*
X122500000Y-88280000D02*
X121300000Y-88280000D01*
X121300000Y-88280000D02*
X121300000Y-85580000D01*
X126100000Y-84280000D02*
X126100000Y-88280000D01*
X126100000Y-88280000D02*
X124900000Y-88280000D01*
D10*
X133075000Y-83475000D02*
X133075000Y-83700000D01*
X140325000Y-83475000D02*
X140325000Y-83775000D01*
X140325000Y-90725000D02*
X140325000Y-90425000D01*
X133075000Y-90725000D02*
X133075000Y-90425000D01*
X133075000Y-83475000D02*
X133375000Y-83475000D01*
X133075000Y-90725000D02*
X133375000Y-90725000D01*
X140325000Y-90725000D02*
X140025000Y-90725000D01*
X140325000Y-83475000D02*
X140025000Y-83475000D01*
X133075000Y-83700000D02*
X131850000Y-83700000D01*
X132825000Y-60925000D02*
X132825000Y-60950000D01*
X136975000Y-60925000D02*
X136975000Y-61030000D01*
X136975000Y-71075000D02*
X136975000Y-70970000D01*
X132825000Y-71075000D02*
X132825000Y-70970000D01*
X132825000Y-60925000D02*
X136975000Y-60925000D01*
X132825000Y-71075000D02*
X136975000Y-71075000D01*
X132825000Y-60950000D02*
X131450000Y-60950000D01*
X125775000Y-95675000D02*
X125775000Y-95625000D01*
X121625000Y-95675000D02*
X121625000Y-95530000D01*
X121625000Y-90525000D02*
X121625000Y-90670000D01*
X125775000Y-90525000D02*
X125775000Y-90670000D01*
X125775000Y-95675000D02*
X121625000Y-95675000D01*
X125775000Y-90525000D02*
X121625000Y-90525000D01*
X125775000Y-95625000D02*
X127175000Y-95625000D01*
X152210000Y-60514000D02*
X157290000Y-60514000D01*
X157290000Y-60514000D02*
X157290000Y-65086000D01*
X157290000Y-65086000D02*
X152210000Y-65086000D01*
X152210000Y-65086000D02*
X152210000Y-60514000D01*
X152210000Y-62038000D02*
X152718000Y-62038000D01*
X152718000Y-62038000D02*
X152718000Y-63308000D01*
X152718000Y-63308000D02*
X152210000Y-63308000D01*
D11*
X130700000Y-87480000D02*
X129700000Y-87480000D01*
X129700000Y-86120000D02*
X130700000Y-86120000D01*
D10*
X149352380Y-99409523D02*
X150066666Y-99409523D01*
X150209523Y-99457142D01*
X150304761Y-99552380D01*
X150352380Y-99695238D01*
X150352380Y-99790476D01*
X150352380Y-98409523D02*
X150352380Y-98980952D01*
X150352380Y-98695238D02*
X149352380Y-98695238D01*
X149495238Y-98790476D01*
X149590476Y-98885714D01*
X149638095Y-98980952D01*
X150352380Y-97457142D02*
X150352380Y-98028571D01*
X150352380Y-97742857D02*
X149352380Y-97742857D01*
X149495238Y-97838095D01*
X149590476Y-97933333D01*
X149638095Y-98028571D01*
X140366666Y-95702380D02*
X140366666Y-96416666D01*
X140319047Y-96559523D01*
X140223809Y-96654761D01*
X140080952Y-96702380D01*
X139985714Y-96702380D01*
X141271428Y-96035714D02*
X141271428Y-96702380D01*
X141033333Y-95654761D02*
X140795238Y-96369047D01*
X141414285Y-96369047D01*
X128676190Y-84576190D02*
X129152380Y-84576190D01*
X128152380Y-84909523D02*
X128676190Y-84576190D01*
X128152380Y-84242857D01*
X129152380Y-83385714D02*
X129152380Y-83957142D01*
X129152380Y-83671428D02*
X128152380Y-83671428D01*
X128295238Y-83766666D01*
X128390476Y-83861904D01*
X128438095Y-83957142D01*
X115566666Y-84552380D02*
X115566666Y-85266666D01*
X115519047Y-85409523D01*
X115423809Y-85504761D01*
X115280952Y-85552380D01*
X115185714Y-85552380D01*
X116090476Y-85552380D02*
X116280952Y-85552380D01*
X116376190Y-85504761D01*
X116423809Y-85457142D01*
X116519047Y-85314285D01*
X116566666Y-85123809D01*
X116566666Y-84742857D01*
X116519047Y-84647619D01*
X116471428Y-84600000D01*
X116376190Y-84552380D01*
X116185714Y-84552380D01*
X116090476Y-84600000D01*
X116042857Y-84647619D01*
X115995238Y-84742857D01*
X115995238Y-84980952D01*
X116042857Y-85076190D01*
X116090476Y-85123809D01*
X116185714Y-85171428D01*
X116376190Y-85171428D01*
X116471428Y-85123809D01*
X116519047Y-85076190D01*
X116566666Y-84980952D01*
X143566666Y-70252380D02*
X143566666Y-70966666D01*
X143519047Y-71109523D01*
X143423809Y-71204761D01*
X143280952Y-71252380D01*
X143185714Y-71252380D01*
X144471428Y-70252380D02*
X144280952Y-70252380D01*
X144185714Y-70300000D01*
X144138095Y-70347619D01*
X144042857Y-70490476D01*
X143995238Y-70680952D01*
X143995238Y-71061904D01*
X144042857Y-71157142D01*
X144090476Y-71204761D01*
X144185714Y-71252380D01*
X144376190Y-71252380D01*
X144471428Y-71204761D01*
X144519047Y-71157142D01*
X144566666Y-71061904D01*
X144566666Y-70823809D01*
X144519047Y-70728571D01*
X144471428Y-70680952D01*
X144376190Y-70633333D01*
X144185714Y-70633333D01*
X144090476Y-70680952D01*
X144042857Y-70728571D01*
X143995238Y-70823809D01*
X118066666Y-60752380D02*
X118066666Y-61466666D01*
X118019047Y-61609523D01*
X117923809Y-61704761D01*
X117780952Y-61752380D01*
X117685714Y-61752380D01*
X119019047Y-60752380D02*
X118542857Y-60752380D01*
X118495238Y-61228571D01*
X118542857Y-61180952D01*
X118638095Y-61133333D01*
X118876190Y-61133333D01*
X118971428Y-61180952D01*
X119019047Y-61228571D01*
X119066666Y-61323809D01*
X119066666Y-61561904D01*
X119019047Y-61657142D01*
X118971428Y-61704761D01*
X118876190Y-61752380D01*
X118638095Y-61752380D01*
X118542857Y-61704761D01*
X118495238Y-61657142D01*
X116157142Y-70542857D02*
X116204761Y-70590476D01*
X116252380Y-70733333D01*
X116252380Y-70828571D01*
X116204761Y-70971428D01*
X116109523Y-71066666D01*
X116014285Y-71114285D01*
X115823809Y-71161904D01*
X115680952Y-71161904D01*
X115490476Y-71114285D01*
X115395238Y-71066666D01*
X115300000Y-70971428D01*
X115252380Y-70828571D01*
X115252380Y-70733333D01*
X115300000Y-70590476D01*
X115347619Y-70542857D01*
X116252380Y-69590476D02*
X116252380Y-70161904D01*
X116252380Y-69876190D02*
X115252380Y-69876190D01*
X115395238Y-69971428D01*
X115490476Y-70066666D01*
X115538095Y-70161904D01*
X116252380Y-68638095D02*
X116252380Y-69209523D01*
X116252380Y-68923809D02*
X115252380Y-68923809D01*
X115395238Y-69019047D01*
X115490476Y-69114285D01*
X115538095Y-69209523D01*
X124457142Y-73342857D02*
X124504761Y-73390476D01*
X124552380Y-73533333D01*
X124552380Y-73628571D01*
X124504761Y-73771428D01*
X124409523Y-73866666D01*
X124314285Y-73914285D01*
X124123809Y-73961904D01*
X123980952Y-73961904D01*
X123790476Y-73914285D01*
X123695238Y-73866666D01*
X123600000Y-73771428D01*
X123552380Y-73628571D01*
X123552380Y-73533333D01*
X123600000Y-73390476D01*
X123647619Y-73342857D01*
X123647619Y-72961904D02*
X123600000Y-72914285D01*
X123552380Y-72819047D01*
X123552380Y-72580952D01*
X123600000Y-72485714D01*
X123647619Y-72438095D01*
X123742857Y-72390476D01*
X123838095Y-72390476D01*
X123980952Y-72438095D01*
X124552380Y-73009523D01*
X124552380Y-72390476D01*
X123647619Y-72009523D02*
X123600000Y-71961904D01*
X123552380Y-71866666D01*
X123552380Y-71628571D01*
X123600000Y-71533333D01*
X123647619Y-71485714D01*
X123742857Y-71438095D01*
X123838095Y-71438095D01*
X123980952Y-71485714D01*
X124552380Y-72057142D01*
X124552380Y-71438095D01*
X128052380Y-99885714D02*
X128052380Y-99314285D01*
X129052380Y-99600000D02*
X128052380Y-99600000D01*
X129052380Y-98980952D02*
X128052380Y-98980952D01*
X128528571Y-98980952D02*
X128528571Y-98409523D01*
X129052380Y-98409523D02*
X128052380Y-98409523D01*
X129052380Y-97409523D02*
X129052380Y-97980952D01*
X129052380Y-97695238D02*
X128052380Y-97695238D01*
X128195238Y-97790476D01*
X128290476Y-97885714D01*
X128338095Y-97980952D01*
X120033333Y-88357142D02*
X119985714Y-88404761D01*
X119842857Y-88452380D01*
X119747619Y-88452380D01*
X119604761Y-88404761D01*
X119509523Y-88309523D01*
X119461904Y-88214285D01*
X119414285Y-88023809D01*
X119414285Y-87880952D01*
X119461904Y-87690476D01*
X119509523Y-87595238D01*
X119604761Y-87500000D01*
X119747619Y-87452380D01*
X119842857Y-87452380D01*
X119985714Y-87500000D01*
X120033333Y-87547619D01*
X120985714Y-88452380D02*
X120414285Y-88452380D01*
X120700000Y-88452380D02*
X120700000Y-87452380D01*
X120604761Y-87595238D01*
X120509523Y-87690476D01*
X120414285Y-87738095D01*
X121657142Y-73342857D02*
X121704761Y-73390476D01*
X121752380Y-73533333D01*
X121752380Y-73628571D01*
X121704761Y-73771428D01*
X121609523Y-73866666D01*
X121514285Y-73914285D01*
X121323809Y-73961904D01*
X121180952Y-73961904D01*
X120990476Y-73914285D01*
X120895238Y-73866666D01*
X120800000Y-73771428D01*
X120752380Y-73628571D01*
X120752380Y-73533333D01*
X120800000Y-73390476D01*
X120847619Y-73342857D01*
X120847619Y-72961904D02*
X120800000Y-72914285D01*
X120752380Y-72819047D01*
X120752380Y-72580952D01*
X120800000Y-72485714D01*
X120847619Y-72438095D01*
X120942857Y-72390476D01*
X121038095Y-72390476D01*
X121180952Y-72438095D01*
X121752380Y-73009523D01*
X121752380Y-72390476D01*
X121752380Y-71438095D02*
X121752380Y-72009523D01*
X121752380Y-71723809D02*
X120752380Y-71723809D01*
X120895238Y-71819047D01*
X120990476Y-71914285D01*
X121038095Y-72009523D01*
X127457142Y-73342857D02*
X127504761Y-73390476D01*
X127552380Y-73533333D01*
X127552380Y-73628571D01*
X127504761Y-73771428D01*
X127409523Y-73866666D01*
X127314285Y-73914285D01*
X127123809Y-73961904D01*
X126980952Y-73961904D01*
X126790476Y-73914285D01*
X126695238Y-73866666D01*
X126600000Y-73771428D01*
X126552380Y-73628571D01*
X126552380Y-73533333D01*
X126600000Y-73390476D01*
X126647619Y-73342857D01*
X126647619Y-72961904D02*
X126600000Y-72914285D01*
X126552380Y-72819047D01*
X126552380Y-72580952D01*
X126600000Y-72485714D01*
X126647619Y-72438095D01*
X126742857Y-72390476D01*
X126838095Y-72390476D01*
X126980952Y-72438095D01*
X127552380Y-73009523D01*
X127552380Y-72390476D01*
X126552380Y-71771428D02*
X126552380Y-71676190D01*
X126600000Y-71580952D01*
X126647619Y-71533333D01*
X126742857Y-71485714D01*
X126933333Y-71438095D01*
X127171428Y-71438095D01*
X127361904Y-71485714D01*
X127457142Y-71533333D01*
X127504761Y-71580952D01*
X127552380Y-71676190D01*
X127552380Y-71771428D01*
X127504761Y-71866666D01*
X127457142Y-71914285D01*
X127361904Y-71961904D01*
X127171428Y-72009523D01*
X126933333Y-72009523D01*
X126742857Y-71961904D01*
X126647619Y-71914285D01*
X126600000Y-71866666D01*
X126552380Y-71771428D01*
X121657142Y-59942857D02*
X121704761Y-59990476D01*
X121752380Y-60133333D01*
X121752380Y-60228571D01*
X121704761Y-60371428D01*
X121609523Y-60466666D01*
X121514285Y-60514285D01*
X121323809Y-60561904D01*
X121180952Y-60561904D01*
X120990476Y-60514285D01*
X120895238Y-60466666D01*
X120800000Y-60371428D01*
X120752380Y-60228571D01*
X120752380Y-60133333D01*
X120800000Y-59990476D01*
X120847619Y-59942857D01*
X121752380Y-58990476D02*
X121752380Y-59561904D01*
X121752380Y-59276190D02*
X120752380Y-59276190D01*
X120895238Y-59371428D01*
X120990476Y-59466666D01*
X121038095Y-59561904D01*
X121752380Y-58514285D02*
X121752380Y-58323809D01*
X121704761Y-58228571D01*
X121657142Y-58180952D01*
X121514285Y-58085714D01*
X121323809Y-58038095D01*
X120942857Y-58038095D01*
X120847619Y-58085714D01*
X120800000Y-58133333D01*
X120752380Y-58228571D01*
X120752380Y-58419047D01*
X120800000Y-58514285D01*
X120847619Y-58561904D01*
X120942857Y-58609523D01*
X121180952Y-58609523D01*
X121276190Y-58561904D01*
X121323809Y-58514285D01*
X121371428Y-58419047D01*
X121371428Y-58228571D01*
X121323809Y-58133333D01*
X121276190Y-58085714D01*
X121180952Y-58038095D01*
X124557142Y-59942857D02*
X124604761Y-59990476D01*
X124652380Y-60133333D01*
X124652380Y-60228571D01*
X124604761Y-60371428D01*
X124509523Y-60466666D01*
X124414285Y-60514285D01*
X124223809Y-60561904D01*
X124080952Y-60561904D01*
X123890476Y-60514285D01*
X123795238Y-60466666D01*
X123700000Y-60371428D01*
X123652380Y-60228571D01*
X123652380Y-60133333D01*
X123700000Y-59990476D01*
X123747619Y-59942857D01*
X124652380Y-58990476D02*
X124652380Y-59561904D01*
X124652380Y-59276190D02*
X123652380Y-59276190D01*
X123795238Y-59371428D01*
X123890476Y-59466666D01*
X123938095Y-59561904D01*
X124080952Y-58419047D02*
X124033333Y-58514285D01*
X123985714Y-58561904D01*
X123890476Y-58609523D01*
X123842857Y-58609523D01*
X123747619Y-58561904D01*
X123700000Y-58514285D01*
X123652380Y-58419047D01*
X123652380Y-58228571D01*
X123700000Y-58133333D01*
X123747619Y-58085714D01*
X123842857Y-58038095D01*
X123890476Y-58038095D01*
X123985714Y-58085714D01*
X124033333Y-58133333D01*
X124080952Y-58228571D01*
X124080952Y-58419047D01*
X124128571Y-58514285D01*
X124176190Y-58561904D01*
X124271428Y-58609523D01*
X124461904Y-58609523D01*
X124557142Y-58561904D01*
X124604761Y-58514285D01*
X124652380Y-58419047D01*
X124652380Y-58228571D01*
X124604761Y-58133333D01*
X124557142Y-58085714D01*
X124461904Y-58038095D01*
X124271428Y-58038095D01*
X124176190Y-58085714D01*
X124128571Y-58133333D01*
X124080952Y-58228571D01*
X127257142Y-59942857D02*
X127304761Y-59990476D01*
X127352380Y-60133333D01*
X127352380Y-60228571D01*
X127304761Y-60371428D01*
X127209523Y-60466666D01*
X127114285Y-60514285D01*
X126923809Y-60561904D01*
X126780952Y-60561904D01*
X126590476Y-60514285D01*
X126495238Y-60466666D01*
X126400000Y-60371428D01*
X126352380Y-60228571D01*
X126352380Y-60133333D01*
X126400000Y-59990476D01*
X126447619Y-59942857D01*
X127352380Y-58990476D02*
X127352380Y-59561904D01*
X127352380Y-59276190D02*
X126352380Y-59276190D01*
X126495238Y-59371428D01*
X126590476Y-59466666D01*
X126638095Y-59561904D01*
X126352380Y-58657142D02*
X126352380Y-57990476D01*
X127352380Y-58419047D01*
X127157142Y-87566666D02*
X127204761Y-87614285D01*
X127252380Y-87757142D01*
X127252380Y-87852380D01*
X127204761Y-87995238D01*
X127109523Y-88090476D01*
X127014285Y-88138095D01*
X126823809Y-88185714D01*
X126680952Y-88185714D01*
X126490476Y-88138095D01*
X126395238Y-88090476D01*
X126300000Y-87995238D01*
X126252380Y-87852380D01*
X126252380Y-87757142D01*
X126300000Y-87614285D01*
X126347619Y-87566666D01*
X126347619Y-87185714D02*
X126300000Y-87138095D01*
X126252380Y-87042857D01*
X126252380Y-86804761D01*
X126300000Y-86709523D01*
X126347619Y-86661904D01*
X126442857Y-86614285D01*
X126538095Y-86614285D01*
X126680952Y-86661904D01*
X127252380Y-87233333D01*
X127252380Y-86614285D01*
X128857142Y-81116666D02*
X128904761Y-81164285D01*
X128952380Y-81307142D01*
X128952380Y-81402380D01*
X128904761Y-81545238D01*
X128809523Y-81640476D01*
X128714285Y-81688095D01*
X128523809Y-81735714D01*
X128380952Y-81735714D01*
X128190476Y-81688095D01*
X128095238Y-81640476D01*
X128000000Y-81545238D01*
X127952380Y-81402380D01*
X127952380Y-81307142D01*
X128000000Y-81164285D01*
X128047619Y-81116666D01*
X127952380Y-80783333D02*
X127952380Y-80164285D01*
X128333333Y-80497619D01*
X128333333Y-80354761D01*
X128380952Y-80259523D01*
X128428571Y-80211904D01*
X128523809Y-80164285D01*
X128761904Y-80164285D01*
X128857142Y-80211904D01*
X128904761Y-80259523D01*
X128952380Y-80354761D01*
X128952380Y-80640476D01*
X128904761Y-80735714D01*
X128857142Y-80783333D01*
X128857142Y-82866666D02*
X128904761Y-82914285D01*
X128952380Y-83057142D01*
X128952380Y-83152380D01*
X128904761Y-83295238D01*
X128809523Y-83390476D01*
X128714285Y-83438095D01*
X128523809Y-83485714D01*
X128380952Y-83485714D01*
X128190476Y-83438095D01*
X128095238Y-83390476D01*
X128000000Y-83295238D01*
X127952380Y-83152380D01*
X127952380Y-83057142D01*
X128000000Y-82914285D01*
X128047619Y-82866666D01*
X128285714Y-82009523D02*
X128952380Y-82009523D01*
X127904761Y-82247619D02*
X128619047Y-82485714D01*
X128619047Y-81866666D01*
X141433333Y-93857142D02*
X141385714Y-93904761D01*
X141242857Y-93952380D01*
X141147619Y-93952380D01*
X141004761Y-93904761D01*
X140909523Y-93809523D01*
X140861904Y-93714285D01*
X140814285Y-93523809D01*
X140814285Y-93380952D01*
X140861904Y-93190476D01*
X140909523Y-93095238D01*
X141004761Y-93000000D01*
X141147619Y-92952380D01*
X141242857Y-92952380D01*
X141385714Y-93000000D01*
X141433333Y-93047619D01*
X142338095Y-92952380D02*
X141861904Y-92952380D01*
X141814285Y-93428571D01*
X141861904Y-93380952D01*
X141957142Y-93333333D01*
X142195238Y-93333333D01*
X142290476Y-93380952D01*
X142338095Y-93428571D01*
X142385714Y-93523809D01*
X142385714Y-93761904D01*
X142338095Y-93857142D01*
X142290476Y-93904761D01*
X142195238Y-93952380D01*
X141957142Y-93952380D01*
X141861904Y-93904761D01*
X141814285Y-93857142D01*
X131833333Y-91357142D02*
X131785714Y-91404761D01*
X131642857Y-91452380D01*
X131547619Y-91452380D01*
X131404761Y-91404761D01*
X131309523Y-91309523D01*
X131261904Y-91214285D01*
X131214285Y-91023809D01*
X131214285Y-90880952D01*
X131261904Y-90690476D01*
X131309523Y-90595238D01*
X131404761Y-90500000D01*
X131547619Y-90452380D01*
X131642857Y-90452380D01*
X131785714Y-90500000D01*
X131833333Y-90547619D01*
X132690476Y-90452380D02*
X132500000Y-90452380D01*
X132404761Y-90500000D01*
X132357142Y-90547619D01*
X132261904Y-90690476D01*
X132214285Y-90880952D01*
X132214285Y-91261904D01*
X132261904Y-91357142D01*
X132309523Y-91404761D01*
X132404761Y-91452380D01*
X132595238Y-91452380D01*
X132690476Y-91404761D01*
X132738095Y-91357142D01*
X132785714Y-91261904D01*
X132785714Y-91023809D01*
X132738095Y-90928571D01*
X132690476Y-90880952D01*
X132595238Y-90833333D01*
X132404761Y-90833333D01*
X132309523Y-90880952D01*
X132261904Y-90928571D01*
X132214285Y-91023809D01*
X131833333Y-92557142D02*
X131785714Y-92604761D01*
X131642857Y-92652380D01*
X131547619Y-92652380D01*
X131404761Y-92604761D01*
X131309523Y-92509523D01*
X131261904Y-92414285D01*
X131214285Y-92223809D01*
X131214285Y-92080952D01*
X131261904Y-91890476D01*
X131309523Y-91795238D01*
X131404761Y-91700000D01*
X131547619Y-91652380D01*
X131642857Y-91652380D01*
X131785714Y-91700000D01*
X131833333Y-91747619D01*
X132166666Y-91652380D02*
X132833333Y-91652380D01*
X132404761Y-92652380D01*
X127333333Y-89257142D02*
X127285714Y-89304761D01*
X127142857Y-89352380D01*
X127047619Y-89352380D01*
X126904761Y-89304761D01*
X126809523Y-89209523D01*
X126761904Y-89114285D01*
X126714285Y-88923809D01*
X126714285Y-88780952D01*
X126761904Y-88590476D01*
X126809523Y-88495238D01*
X126904761Y-88400000D01*
X127047619Y-88352380D01*
X127142857Y-88352380D01*
X127285714Y-88400000D01*
X127333333Y-88447619D01*
X127904761Y-88780952D02*
X127809523Y-88733333D01*
X127761904Y-88685714D01*
X127714285Y-88590476D01*
X127714285Y-88542857D01*
X127761904Y-88447619D01*
X127809523Y-88400000D01*
X127904761Y-88352380D01*
X128095238Y-88352380D01*
X128190476Y-88400000D01*
X128238095Y-88447619D01*
X128285714Y-88542857D01*
X128285714Y-88590476D01*
X128238095Y-88685714D01*
X128190476Y-88733333D01*
X128095238Y-88780952D01*
X127904761Y-88780952D01*
X127809523Y-88828571D01*
X127761904Y-88876190D01*
X127714285Y-88971428D01*
X127714285Y-89161904D01*
X127761904Y-89257142D01*
X127809523Y-89304761D01*
X127904761Y-89352380D01*
X128095238Y-89352380D01*
X128190476Y-89304761D01*
X128238095Y-89257142D01*
X128285714Y-89161904D01*
X128285714Y-88971428D01*
X128238095Y-88876190D01*
X128190476Y-88828571D01*
X128095238Y-88780952D01*
X134933333Y-93857142D02*
X134885714Y-93904761D01*
X134742857Y-93952380D01*
X134647619Y-93952380D01*
X134504761Y-93904761D01*
X134409523Y-93809523D01*
X134361904Y-93714285D01*
X134314285Y-93523809D01*
X134314285Y-93380952D01*
X134361904Y-93190476D01*
X134409523Y-93095238D01*
X134504761Y-93000000D01*
X134647619Y-92952380D01*
X134742857Y-92952380D01*
X134885714Y-93000000D01*
X134933333Y-93047619D01*
X135409523Y-93952380D02*
X135600000Y-93952380D01*
X135695238Y-93904761D01*
X135742857Y-93857142D01*
X135838095Y-93714285D01*
X135885714Y-93523809D01*
X135885714Y-93142857D01*
X135838095Y-93047619D01*
X135790476Y-93000000D01*
X135695238Y-92952380D01*
X135504761Y-92952380D01*
X135409523Y-93000000D01*
X135361904Y-93047619D01*
X135314285Y-93142857D01*
X135314285Y-93380952D01*
X135361904Y-93476190D01*
X135409523Y-93523809D01*
X135504761Y-93571428D01*
X135695238Y-93571428D01*
X135790476Y-93523809D01*
X135838095Y-93476190D01*
X135885714Y-93380952D01*
X119957142Y-91242857D02*
X120004761Y-91290476D01*
X120052380Y-91433333D01*
X120052380Y-91528571D01*
X120004761Y-91671428D01*
X119909523Y-91766666D01*
X119814285Y-91814285D01*
X119623809Y-91861904D01*
X119480952Y-91861904D01*
X119290476Y-91814285D01*
X119195238Y-91766666D01*
X119100000Y-91671428D01*
X119052380Y-91528571D01*
X119052380Y-91433333D01*
X119100000Y-91290476D01*
X119147619Y-91242857D01*
X120052380Y-90290476D02*
X120052380Y-90861904D01*
X120052380Y-90576190D02*
X119052380Y-90576190D01*
X119195238Y-90671428D01*
X119290476Y-90766666D01*
X119338095Y-90861904D01*
X119385714Y-89433333D02*
X120052380Y-89433333D01*
X119004761Y-89671428D02*
X119719047Y-89909523D01*
X119719047Y-89290476D01*
X152157142Y-67807142D02*
X152109523Y-67854761D01*
X151966666Y-67902380D01*
X151871428Y-67902380D01*
X151728571Y-67854761D01*
X151633333Y-67759523D01*
X151585714Y-67664285D01*
X151538095Y-67473809D01*
X151538095Y-67330952D01*
X151585714Y-67140476D01*
X151633333Y-67045238D01*
X151728571Y-66950000D01*
X151871428Y-66902380D01*
X151966666Y-66902380D01*
X152109523Y-66950000D01*
X152157142Y-66997619D01*
X153109523Y-67902380D02*
X152538095Y-67902380D01*
X152823809Y-67902380D02*
X152823809Y-66902380D01*
X152728571Y-67045238D01*
X152633333Y-67140476D01*
X152538095Y-67188095D01*
X154014285Y-66902380D02*
X153538095Y-66902380D01*
X153490476Y-67378571D01*
X153538095Y-67330952D01*
X153633333Y-67283333D01*
X153871428Y-67283333D01*
X153966666Y-67330952D01*
X154014285Y-67378571D01*
X154061904Y-67473809D01*
X154061904Y-67711904D01*
X154014285Y-67807142D01*
X153966666Y-67854761D01*
X153871428Y-67902380D01*
X153633333Y-67902380D01*
X153538095Y-67854761D01*
X153490476Y-67807142D01*
X160057142Y-98542857D02*
X160104761Y-98590476D01*
X160152380Y-98733333D01*
X160152380Y-98828571D01*
X160104761Y-98971428D01*
X160009523Y-99066666D01*
X159914285Y-99114285D01*
X159723809Y-99161904D01*
X159580952Y-99161904D01*
X159390476Y-99114285D01*
X159295238Y-99066666D01*
X159200000Y-98971428D01*
X159152380Y-98828571D01*
X159152380Y-98733333D01*
X159200000Y-98590476D01*
X159247619Y-98542857D01*
X160152380Y-97590476D02*
X160152380Y-98161904D01*
X160152380Y-97876190D02*
X159152380Y-97876190D01*
X159295238Y-97971428D01*
X159390476Y-98066666D01*
X159438095Y-98161904D01*
X159152380Y-96733333D02*
X159152380Y-96923809D01*
X159200000Y-97019047D01*
X159247619Y-97066666D01*
X159390476Y-97161904D01*
X159580952Y-97209523D01*
X159961904Y-97209523D01*
X160057142Y-97161904D01*
X160104761Y-97114285D01*
X160152380Y-97019047D01*
X160152380Y-96828571D01*
X160104761Y-96733333D01*
X160057142Y-96685714D01*
X159961904Y-96638095D01*
X159723809Y-96638095D01*
X159628571Y-96685714D01*
X159580952Y-96733333D01*
X159533333Y-96828571D01*
X159533333Y-97019047D01*
X159580952Y-97114285D01*
X159628571Y-97161904D01*
X159723809Y-97209523D01*
X142611904Y-94802380D02*
X142611904Y-93802380D01*
X142850000Y-93802380D01*
X142992857Y-93850000D01*
X143088095Y-93945238D01*
X143135714Y-94040476D01*
X143183333Y-94230952D01*
X143183333Y-94373809D01*
X143135714Y-94564285D01*
X143088095Y-94659523D01*
X142992857Y-94754761D01*
X142850000Y-94802380D01*
X142611904Y-94802380D01*
X144135714Y-94802380D02*
X143564285Y-94802380D01*
X143850000Y-94802380D02*
X143850000Y-93802380D01*
X143754761Y-93945238D01*
X143659523Y-94040476D01*
X143564285Y-94088095D01*
X134161904Y-95352380D02*
X134161904Y-94352380D01*
X134400000Y-94352380D01*
X134542857Y-94400000D01*
X134638095Y-94495238D01*
X134685714Y-94590476D01*
X134733333Y-94780952D01*
X134733333Y-94923809D01*
X134685714Y-95114285D01*
X134638095Y-95209523D01*
X134542857Y-95304761D01*
X134400000Y-95352380D01*
X134161904Y-95352380D01*
X135066666Y-94352380D02*
X135685714Y-94352380D01*
X135352380Y-94733333D01*
X135495238Y-94733333D01*
X135590476Y-94780952D01*
X135638095Y-94828571D01*
X135685714Y-94923809D01*
X135685714Y-95161904D01*
X135638095Y-95257142D01*
X135590476Y-95304761D01*
X135495238Y-95352380D01*
X135209523Y-95352380D01*
X135114285Y-95304761D01*
X135066666Y-95257142D01*
X126666666Y-90028571D02*
X126333333Y-90028571D01*
X126333333Y-90552380D02*
X126333333Y-89552380D01*
X126809523Y-89552380D01*
X127523809Y-90028571D02*
X127666666Y-90076190D01*
X127714285Y-90123809D01*
X127761904Y-90219047D01*
X127761904Y-90361904D01*
X127714285Y-90457142D01*
X127666666Y-90504761D01*
X127571428Y-90552380D01*
X127190476Y-90552380D01*
X127190476Y-89552380D01*
X127523809Y-89552380D01*
X127619047Y-89600000D01*
X127666666Y-89647619D01*
X127714285Y-89742857D01*
X127714285Y-89838095D01*
X127666666Y-89933333D01*
X127619047Y-89980952D01*
X127523809Y-90028571D01*
X127190476Y-90028571D01*
X128714285Y-90552380D02*
X128142857Y-90552380D01*
X128428571Y-90552380D02*
X128428571Y-89552380D01*
X128333333Y-89695238D01*
X128238095Y-89790476D01*
X128142857Y-89838095D01*
X142366666Y-81752380D02*
X142366666Y-82466666D01*
X142319047Y-82609523D01*
X142223809Y-82704761D01*
X142080952Y-82752380D01*
X141985714Y-82752380D01*
X143366666Y-82752380D02*
X142795238Y-82752380D01*
X143080952Y-82752380D02*
X143080952Y-81752380D01*
X142985714Y-81895238D01*
X142890476Y-81990476D01*
X142795238Y-82038095D01*
X115566666Y-94652380D02*
X115566666Y-95366666D01*
X115519047Y-95509523D01*
X115423809Y-95604761D01*
X115280952Y-95652380D01*
X115185714Y-95652380D01*
X115947619Y-94652380D02*
X116566666Y-94652380D01*
X116233333Y-95033333D01*
X116376190Y-95033333D01*
X116471428Y-95080952D01*
X116519047Y-95128571D01*
X116566666Y-95223809D01*
X116566666Y-95461904D01*
X116519047Y-95557142D01*
X116471428Y-95604761D01*
X116376190Y-95652380D01*
X116090476Y-95652380D01*
X115995238Y-95604761D01*
X115947619Y-95557142D01*
X132233333Y-81652380D02*
X131900000Y-81176190D01*
X131661904Y-81652380D02*
X131661904Y-80652380D01*
X132042857Y-80652380D01*
X132138095Y-80700000D01*
X132185714Y-80747619D01*
X132233333Y-80842857D01*
X132233333Y-80985714D01*
X132185714Y-81080952D01*
X132138095Y-81128571D01*
X132042857Y-81176190D01*
X131661904Y-81176190D01*
X133185714Y-81652380D02*
X132614285Y-81652380D01*
X132900000Y-81652380D02*
X132900000Y-80652380D01*
X132804761Y-80795238D01*
X132709523Y-80890476D01*
X132614285Y-80938095D01*
X138433333Y-95302380D02*
X138100000Y-94826190D01*
X137861904Y-95302380D02*
X137861904Y-94302380D01*
X138242857Y-94302380D01*
X138338095Y-94350000D01*
X138385714Y-94397619D01*
X138433333Y-94492857D01*
X138433333Y-94635714D01*
X138385714Y-94730952D01*
X138338095Y-94778571D01*
X138242857Y-94826190D01*
X137861904Y-94826190D01*
X138814285Y-94397619D02*
X138861904Y-94350000D01*
X138957142Y-94302380D01*
X139195238Y-94302380D01*
X139290476Y-94350000D01*
X139338095Y-94397619D01*
X139385714Y-94492857D01*
X139385714Y-94588095D01*
X139338095Y-94730952D01*
X138766666Y-95302380D01*
X139385714Y-95302380D01*
X128233333Y-93952380D02*
X127900000Y-93476190D01*
X127661904Y-93952380D02*
X127661904Y-92952380D01*
X128042857Y-92952380D01*
X128138095Y-93000000D01*
X128185714Y-93047619D01*
X128233333Y-93142857D01*
X128233333Y-93285714D01*
X128185714Y-93380952D01*
X128138095Y-93428571D01*
X128042857Y-93476190D01*
X127661904Y-93476190D01*
X128566666Y-92952380D02*
X129185714Y-92952380D01*
X128852380Y-93333333D01*
X128995238Y-93333333D01*
X129090476Y-93380952D01*
X129138095Y-93428571D01*
X129185714Y-93523809D01*
X129185714Y-93761904D01*
X129138095Y-93857142D01*
X129090476Y-93904761D01*
X128995238Y-93952380D01*
X128709523Y-93952380D01*
X128614285Y-93904761D01*
X128566666Y-93857142D01*
X128233333Y-95352380D02*
X127900000Y-94876190D01*
X127661904Y-95352380D02*
X127661904Y-94352380D01*
X128042857Y-94352380D01*
X128138095Y-94400000D01*
X128185714Y-94447619D01*
X128233333Y-94542857D01*
X128233333Y-94685714D01*
X128185714Y-94780952D01*
X128138095Y-94828571D01*
X128042857Y-94876190D01*
X127661904Y-94876190D01*
X129090476Y-94685714D02*
X129090476Y-95352380D01*
X128852380Y-94304761D02*
X128614285Y-95019047D01*
X129233333Y-95019047D01*
X129733333Y-61952380D02*
X129400000Y-61476190D01*
X129161904Y-61952380D02*
X129161904Y-60952380D01*
X129542857Y-60952380D01*
X129638095Y-61000000D01*
X129685714Y-61047619D01*
X129733333Y-61142857D01*
X129733333Y-61285714D01*
X129685714Y-61380952D01*
X129638095Y-61428571D01*
X129542857Y-61476190D01*
X129161904Y-61476190D01*
X130638095Y-60952380D02*
X130161904Y-60952380D01*
X130114285Y-61428571D01*
X130161904Y-61380952D01*
X130257142Y-61333333D01*
X130495238Y-61333333D01*
X130590476Y-61380952D01*
X130638095Y-61428571D01*
X130685714Y-61523809D01*
X130685714Y-61761904D01*
X130638095Y-61857142D01*
X130590476Y-61904761D01*
X130495238Y-61952380D01*
X130257142Y-61952380D01*
X130161904Y-61904761D01*
X130114285Y-61857142D01*
X139133333Y-63052380D02*
X138800000Y-62576190D01*
X138561904Y-63052380D02*
X138561904Y-62052380D01*
X138942857Y-62052380D01*
X139038095Y-62100000D01*
X139085714Y-62147619D01*
X139133333Y-62242857D01*
X139133333Y-62385714D01*
X139085714Y-62480952D01*
X139038095Y-62528571D01*
X138942857Y-62576190D01*
X138561904Y-62576190D01*
X139990476Y-62052380D02*
X139800000Y-62052380D01*
X139704761Y-62100000D01*
X139657142Y-62147619D01*
X139561904Y-62290476D01*
X139514285Y-62480952D01*
X139514285Y-62861904D01*
X139561904Y-62957142D01*
X139609523Y-63004761D01*
X139704761Y-63052380D01*
X139895238Y-63052380D01*
X139990476Y-63004761D01*
X140038095Y-62957142D01*
X140085714Y-62861904D01*
X140085714Y-62623809D01*
X140038095Y-62528571D01*
X139990476Y-62480952D01*
X139895238Y-62433333D01*
X139704761Y-62433333D01*
X139609523Y-62480952D01*
X139561904Y-62528571D01*
X139514285Y-62623809D01*
X142052380Y-68166666D02*
X141576190Y-68500000D01*
X142052380Y-68738095D02*
X141052380Y-68738095D01*
X141052380Y-68357142D01*
X141100000Y-68261904D01*
X141147619Y-68214285D01*
X141242857Y-68166666D01*
X141385714Y-68166666D01*
X141480952Y-68214285D01*
X141528571Y-68261904D01*
X141576190Y-68357142D01*
X141576190Y-68738095D01*
X141052380Y-67833333D02*
X141052380Y-67166666D01*
X142052380Y-67595238D01*
X142052380Y-64166666D02*
X141576190Y-64500000D01*
X142052380Y-64738095D02*
X141052380Y-64738095D01*
X141052380Y-64357142D01*
X141100000Y-64261904D01*
X141147619Y-64214285D01*
X141242857Y-64166666D01*
X141385714Y-64166666D01*
X141480952Y-64214285D01*
X141528571Y-64261904D01*
X141576190Y-64357142D01*
X141576190Y-64738095D01*
X141480952Y-63595238D02*
X141433333Y-63690476D01*
X141385714Y-63738095D01*
X141290476Y-63785714D01*
X141242857Y-63785714D01*
X141147619Y-63738095D01*
X141100000Y-63690476D01*
X141052380Y-63595238D01*
X141052380Y-63404761D01*
X141100000Y-63309523D01*
X141147619Y-63261904D01*
X141242857Y-63214285D01*
X141290476Y-63214285D01*
X141385714Y-63261904D01*
X141433333Y-63309523D01*
X141480952Y-63404761D01*
X141480952Y-63595238D01*
X141528571Y-63690476D01*
X141576190Y-63738095D01*
X141671428Y-63785714D01*
X141861904Y-63785714D01*
X141957142Y-63738095D01*
X142004761Y-63690476D01*
X142052380Y-63595238D01*
X142052380Y-63404761D01*
X142004761Y-63309523D01*
X141957142Y-63261904D01*
X141861904Y-63214285D01*
X141671428Y-63214285D01*
X141576190Y-63261904D01*
X141528571Y-63309523D01*
X141480952Y-63404761D01*
X129733333Y-71052380D02*
X129400000Y-70576190D01*
X129161904Y-71052380D02*
X129161904Y-70052380D01*
X129542857Y-70052380D01*
X129638095Y-70100000D01*
X129685714Y-70147619D01*
X129733333Y-70242857D01*
X129733333Y-70385714D01*
X129685714Y-70480952D01*
X129638095Y-70528571D01*
X129542857Y-70576190D01*
X129161904Y-70576190D01*
X130209523Y-71052380D02*
X130400000Y-71052380D01*
X130495238Y-71004761D01*
X130542857Y-70957142D01*
X130638095Y-70814285D01*
X130685714Y-70623809D01*
X130685714Y-70242857D01*
X130638095Y-70147619D01*
X130590476Y-70100000D01*
X130495238Y-70052380D01*
X130304761Y-70052380D01*
X130209523Y-70100000D01*
X130161904Y-70147619D01*
X130114285Y-70242857D01*
X130114285Y-70480952D01*
X130161904Y-70576190D01*
X130209523Y-70623809D01*
X130304761Y-70671428D01*
X130495238Y-70671428D01*
X130590476Y-70623809D01*
X130638095Y-70576190D01*
X130685714Y-70480952D01*
X139157142Y-69952380D02*
X138823809Y-69476190D01*
X138585714Y-69952380D02*
X138585714Y-68952380D01*
X138966666Y-68952380D01*
X139061904Y-69000000D01*
X139109523Y-69047619D01*
X139157142Y-69142857D01*
X139157142Y-69285714D01*
X139109523Y-69380952D01*
X139061904Y-69428571D01*
X138966666Y-69476190D01*
X138585714Y-69476190D01*
X140109523Y-69952380D02*
X139538095Y-69952380D01*
X139823809Y-69952380D02*
X139823809Y-68952380D01*
X139728571Y-69095238D01*
X139633333Y-69190476D01*
X139538095Y-69238095D01*
X140728571Y-68952380D02*
X140823809Y-68952380D01*
X140919047Y-69000000D01*
X140966666Y-69047619D01*
X141014285Y-69142857D01*
X141061904Y-69333333D01*
X141061904Y-69571428D01*
X141014285Y-69761904D01*
X140966666Y-69857142D01*
X140919047Y-69904761D01*
X140823809Y-69952380D01*
X140728571Y-69952380D01*
X140633333Y-69904761D01*
X140585714Y-69857142D01*
X140538095Y-69761904D01*
X140490476Y-69571428D01*
X140490476Y-69333333D01*
X140538095Y-69142857D01*
X140585714Y-69047619D01*
X140633333Y-69000000D01*
X140728571Y-68952380D01*
X129257142Y-96752380D02*
X128923809Y-96276190D01*
X128685714Y-96752380D02*
X128685714Y-95752380D01*
X129066666Y-95752380D01*
X129161904Y-95800000D01*
X129209523Y-95847619D01*
X129257142Y-95942857D01*
X129257142Y-96085714D01*
X129209523Y-96180952D01*
X129161904Y-96228571D01*
X129066666Y-96276190D01*
X128685714Y-96276190D01*
X130209523Y-96752380D02*
X129638095Y-96752380D01*
X129923809Y-96752380D02*
X129923809Y-95752380D01*
X129828571Y-95895238D01*
X129733333Y-95990476D01*
X129638095Y-96038095D01*
X131161904Y-96752380D02*
X130590476Y-96752380D01*
X130876190Y-96752380D02*
X130876190Y-95752380D01*
X130780952Y-95895238D01*
X130685714Y-95990476D01*
X130590476Y-96038095D01*
X155457142Y-57152380D02*
X155123809Y-56676190D01*
X154885714Y-57152380D02*
X154885714Y-56152380D01*
X155266666Y-56152380D01*
X155361904Y-56200000D01*
X155409523Y-56247619D01*
X155457142Y-56342857D01*
X155457142Y-56485714D01*
X155409523Y-56580952D01*
X155361904Y-56628571D01*
X155266666Y-56676190D01*
X154885714Y-56676190D01*
X156409523Y-57152380D02*
X155838095Y-57152380D01*
X156123809Y-57152380D02*
X156123809Y-56152380D01*
X156028571Y-56295238D01*
X155933333Y-56390476D01*
X155838095Y-56438095D01*
X156742857Y-56152380D02*
X157361904Y-56152380D01*
X157028571Y-56533333D01*
X157171428Y-56533333D01*
X157266666Y-56580952D01*
X157314285Y-56628571D01*
X157361904Y-56723809D01*
X157361904Y-56961904D01*
X157314285Y-57057142D01*
X157266666Y-57104761D01*
X157171428Y-57152380D01*
X156885714Y-57152380D01*
X156790476Y-57104761D01*
X156742857Y-57057142D01*
X152707142Y-57152380D02*
X152373809Y-56676190D01*
X152135714Y-57152380D02*
X152135714Y-56152380D01*
X152516666Y-56152380D01*
X152611904Y-56200000D01*
X152659523Y-56247619D01*
X152707142Y-56342857D01*
X152707142Y-56485714D01*
X152659523Y-56580952D01*
X152611904Y-56628571D01*
X152516666Y-56676190D01*
X152135714Y-56676190D01*
X153659523Y-57152380D02*
X153088095Y-57152380D01*
X153373809Y-57152380D02*
X153373809Y-56152380D01*
X153278571Y-56295238D01*
X153183333Y-56390476D01*
X153088095Y-56438095D01*
X154516666Y-56485714D02*
X154516666Y-57152380D01*
X154278571Y-56104761D02*
X154040476Y-56819047D01*
X154659523Y-56819047D01*
X155904761Y-81202380D02*
X155571428Y-80726190D01*
X155333333Y-81202380D02*
X155333333Y-80202380D01*
X155714285Y-80202380D01*
X155809523Y-80250000D01*
X155857142Y-80297619D01*
X155904761Y-80392857D01*
X155904761Y-80535714D01*
X155857142Y-80630952D01*
X155809523Y-80678571D01*
X155714285Y-80726190D01*
X155333333Y-80726190D01*
X156190476Y-80202380D02*
X156523809Y-81202380D01*
X156857142Y-80202380D01*
X157714285Y-81202380D02*
X157142857Y-81202380D01*
X157428571Y-81202380D02*
X157428571Y-80202380D01*
X157333333Y-80345238D01*
X157238095Y-80440476D01*
X157142857Y-80488095D01*
X124952380Y-89961904D02*
X125761904Y-89961904D01*
X125857142Y-89914285D01*
X125904761Y-89866666D01*
X125952380Y-89771428D01*
X125952380Y-89580952D01*
X125904761Y-89485714D01*
X125857142Y-89438095D01*
X125761904Y-89390476D01*
X124952380Y-89390476D01*
X125952380Y-88390476D02*
X125952380Y-88961904D01*
X125952380Y-88676190D02*
X124952380Y-88676190D01*
X125095238Y-88771428D01*
X125190476Y-88866666D01*
X125238095Y-88961904D01*
X138538095Y-92052380D02*
X138538095Y-92861904D01*
X138585714Y-92957142D01*
X138633333Y-93004761D01*
X138728571Y-93052380D01*
X138919047Y-93052380D01*
X139014285Y-93004761D01*
X139061904Y-92957142D01*
X139109523Y-92861904D01*
X139109523Y-92052380D01*
X139538095Y-92147619D02*
X139585714Y-92100000D01*
X139680952Y-92052380D01*
X139919047Y-92052380D01*
X140014285Y-92100000D01*
X140061904Y-92147619D01*
X140109523Y-92242857D01*
X140109523Y-92338095D01*
X140061904Y-92480952D01*
X139490476Y-93052380D01*
X140109523Y-93052380D01*
X131813094Y-59577379D02*
X131813094Y-60386903D01*
X131860713Y-60482141D01*
X131908332Y-60529760D01*
X132003570Y-60577379D01*
X132194046Y-60577379D01*
X132289284Y-60529760D01*
X132336903Y-60482141D01*
X132384522Y-60386903D01*
X132384522Y-59577379D01*
X132765475Y-59577379D02*
X133384522Y-59577379D01*
X133051189Y-59958332D01*
X133194046Y-59958332D01*
X133289284Y-60005951D01*
X133336903Y-60053570D01*
X133384522Y-60148808D01*
X133384522Y-60386903D01*
X133336903Y-60482141D01*
X133289284Y-60529760D01*
X133194046Y-60577379D01*
X132908332Y-60577379D01*
X132813094Y-60529760D01*
X132765475Y-60482141D01*
X118538095Y-94652380D02*
X118538095Y-95461904D01*
X118585714Y-95557142D01*
X118633333Y-95604761D01*
X118728571Y-95652380D01*
X118919047Y-95652380D01*
X119014285Y-95604761D01*
X119061904Y-95557142D01*
X119109523Y-95461904D01*
X119109523Y-94652380D01*
X120014285Y-94652380D02*
X119823809Y-94652380D01*
X119728571Y-94700000D01*
X119680952Y-94747619D01*
X119585714Y-94890476D01*
X119538095Y-95080952D01*
X119538095Y-95461904D01*
X119585714Y-95557142D01*
X119633333Y-95604761D01*
X119728571Y-95652380D01*
X119919047Y-95652380D01*
X120014285Y-95604761D01*
X120061904Y-95557142D01*
X120109523Y-95461904D01*
X120109523Y-95223809D01*
X120061904Y-95128571D01*
X120014285Y-95080952D01*
X119919047Y-95033333D01*
X119728571Y-95033333D01*
X119633333Y-95080952D01*
X119585714Y-95128571D01*
X119538095Y-95223809D01*
X150488095Y-64402380D02*
X150488095Y-65211904D01*
X150535714Y-65307142D01*
X150583333Y-65354761D01*
X150678571Y-65402380D01*
X150869047Y-65402380D01*
X150964285Y-65354761D01*
X151011904Y-65307142D01*
X151059523Y-65211904D01*
X151059523Y-64402380D01*
X151440476Y-64402380D02*
X152107142Y-64402380D01*
X151678571Y-65402380D01*
X128952380Y-86842857D02*
X128476190Y-87176190D01*
X128952380Y-87414285D02*
X127952380Y-87414285D01*
X127952380Y-87033333D01*
X128000000Y-86938095D01*
X128047619Y-86890476D01*
X128142857Y-86842857D01*
X128285714Y-86842857D01*
X128380952Y-86890476D01*
X128428571Y-86938095D01*
X128476190Y-87033333D01*
X128476190Y-87414285D01*
X128952380Y-85890476D02*
X128952380Y-86461904D01*
X128952380Y-86176190D02*
X127952380Y-86176190D01*
X128095238Y-86271428D01*
X128190476Y-86366666D01*
X128238095Y-86461904D01*
X127952380Y-84985714D02*
X127952380Y-85461904D01*
X128428571Y-85509523D01*
X128380952Y-85461904D01*
X128333333Y-85366666D01*
X128333333Y-85128571D01*
X128380952Y-85033333D01*
X128428571Y-84985714D01*
X128523809Y-84938095D01*
X128761904Y-84938095D01*
X128857142Y-84985714D01*
X128904761Y-85033333D01*
X128952380Y-85128571D01*
X128952380Y-85366666D01*
X128904761Y-85461904D01*
X128857142Y-85509523D01*
M02*
